<?xml version="1.0" encoding="utf-8"?>
<!-- Generator: Adobe Illustrator 26.0.1, SVG Export Plug-In . SVG Version: 6.00 Build 0)  -->
<svg version="1.1" id="Layer_1" xmlns="http://www.w3.org/2000/svg" xmlns:xlink="http://www.w3.org/1999/xlink" x="0px" y="0px"
	 viewBox="0 0 340.16 340.16" style="enable-background:new 0 0 340.16 340.16;" xml:space="preserve">
<style type="text/css">
	.st0{fill:#3E2719;}
	.st1{fill:#5E312D;}
	.st2{fill:#936037;}
	.st3{fill:#12100B;}
	.st4{fill:#FFFFFF;}
</style>
<g id="left_boot">
	<path class="st0" d="M158.39,280.25c0,3.28,0.92,10.97,1.17,14.25c0.25,3.91-0.38,7.69-0.76,11.6c-0.13,1.39,0.13,4.79-0.63,5.93
		c-0.88,1.13-3.91,0.76-5.42,0.88c-2.9,0.13-5.68,0.5-8.45,0.63c-9.59,0.38-19.04,0.63-28.75,0.63c-4.54,0-9.08,0-13.75-0.38
		c-2.52-0.25-6.43,0.13-8.45-1.64c-2.77-2.4-0.63-7.69-0.38-10.85c0.13-1.64-0.13-3.91,1.26-5.17c1.14-1.13,3.53-1.64,5.17-2.14
		c2.77-0.76,5.68-0.5,8.58-0.38c5.42,0.12,10.72-0.38,16.27-0.38c0.88,0,2.4,0.25,3.28-0.13c1.14-0.88,1.64-3.78,1.64-5.17
		c0-1.64-1.39-3.41-1.26-5.04c0.13-1.89,2.02-2.02,3.78-2.27c5.8-0.88,11.35-1.13,17.28-1.13"/>
	<g>
		<path d="M152.44,280.25c0.03,4.49,0.71,8.98,1.1,13.45c0.28,3.18-0.02,6.33-0.38,9.49c-0.14,1.3-0.33,2.59-0.35,3.9
			c-0.01,0.58-0.01,1.16-0.03,1.74c-0.01,0.28-0.02,0.55-0.04,0.83c-0.01,0.21-0.03,0.43-0.05,0.64c0.16-1.03,0.19-1.31,0.1-0.85
			c-0.16,0.64-0.39,0.63,0.34-0.6c0.38-0.64,1.56-2.03,2.45-1.96c-0.09-0.01-0.5,0.1-0.55,0.12c1.3-0.5,1.11-0.13,0.35-0.1
			c-1.2,0.05-2.39,0.03-3.59,0.1c-3.48,0.21-6.93,0.56-10.41,0.69c-6.97,0.26-13.94,0.44-20.92,0.5c-3.36,0.03-6.73,0.04-10.09,0
			c-3.29-0.04-6.55-0.29-9.82-0.44c-0.58-0.03-1.15-0.04-1.73-0.07c-0.3-0.01-0.6-0.03-0.9-0.06c-0.62-0.05-0.95-0.37,0.34,0.08
			c-0.45-0.16-1.18-0.33-1.67-0.39c0.27,0.12,0.54,0.24,0.82,0.36c-0.19-0.09-0.38-0.19-0.56-0.3c0.77,0.64,0.93,0.76,0.49,0.35
			c0.19,0.25,0.37,0.5,0.56,0.75c-0.05-0.08-0.1-0.16-0.16-0.24c-0.28-0.54-0.2-0.33,0.24,0.63c0-0.16-0.16-1.26-0.1-0.08
			c0.06,1.16,0.02,0.07,0.02-0.14c-0.01-0.33,0-0.65,0.02-0.98c0.01-0.22,0.05-0.45,0.06-0.67c-0.04,1.76-0.1,0.73-0.02,0.23
			c0.11-0.67,0.25-1.33,0.38-1.99c0.27-1.41,0.52-2.83,0.61-4.26c0.03-0.57,0.06-1.14,0.07-1.71c0.02-1.26-0.36,1.39-0.02,0.19
			c0.33-1.14-0.64,1.11-0.07,0.18c-0.16,0.23-0.32,0.46-0.48,0.69c-0.82,0.58-0.97,0.7-0.45,0.35c0.15-0.07,1.19-0.55,0.24-0.16
			c-0.98,0.4,0.19-0.04,0.33-0.09c0.36-0.12,0.72-0.22,1.08-0.33c0.6-0.17,1.2-0.36,1.8-0.51c0.06-0.01,1.58-0.24,0.61-0.14
			c-0.89,0.1,0.93-0.04,1.1-0.04c3.43-0.11,6.85,0.2,10.29,0.09c3.43-0.11,6.87-0.33,10.31-0.33c1.81,0,3.57,0.2,5.35-0.34
			c2.84-0.86,4.4-3.42,5.26-6.08c0.49-1.52,0.75-3.23,0.74-4.83c0-1.13-0.23-2.31-0.61-3.38c-0.22-0.62-0.4-1.64-0.76-2.18
			c0.04,0.29,0.07,0.58,0.11,0.87c0.04-1.09-0.15-0.49-0.59,1.8c-0.26,0.45-0.6,0.82-1.03,1.1c-0.49,0.34-0.54,0.4-0.17,0.19
			c-1.33,0.79-0.98,0.4-0.33,0.26c0.3-0.06,0.61-0.11,0.92-0.15c0.37-0.05,0.74-0.1,1.11-0.16c1.42-0.21-0.96,0.1,0.34-0.05
			c0.95-0.11,1.91-0.22,2.86-0.31c3.99-0.37,8-0.49,12.01-0.49c3.11,0,6.1-2.73,5.95-5.95c-0.14-3.22-2.62-5.96-5.95-5.95
			c-3.53,0-7.06,0.09-10.59,0.37c-1.75,0.14-3.5,0.33-5.25,0.56c-1.71,0.23-3.61,0.33-5.27,0.84c-2.43,0.75-4.29,2.35-5.28,4.69
			c-0.92,2.18-0.73,4.63,0.1,6.81c0.21,0.57,0.35,1.5,0.67,2c-0.22-0.34-0.04-1.35-0.15-0.39c-0.03,0.25-0.11,1.15,0.01,0.07
			c0.12-1.1,0-0.1-0.06,0.15c-0.07,0.32-0.18,0.63-0.25,0.95c-0.26,1.1,0.63-1.2,0.13-0.29c-0.48,0.86,1-1.04,0.3-0.41
			c0.88-0.51,1.75-1.02,2.63-1.53c-1.03,0.35,1.28,0.03,0.48-0.01c-0.3-0.01-0.6,0-0.89-0.01c-0.51-0.02-1.02-0.06-1.53-0.06
			c-1.53-0.01-3.07,0.05-4.6,0.1c-3.01,0.11-6.03,0.28-9.04,0.29c-3.31,0.02-6.59-0.34-9.89,0.1c-2.87,0.39-6.17,1.17-8.63,2.73
			c-3.5,2.21-4.64,5.7-4.78,9.65c-0.02,0.46-0.09,0.95-0.07,1.42c-0.05-1.59,0.18-1.17,0.07-0.58c-0.05,0.26-0.09,0.51-0.14,0.77
			c-0.2,1.05-0.42,2.1-0.57,3.16c-0.47,3.26-0.62,6.67,1.27,9.57c2.16,3.33,5.66,4.53,9.41,4.95c2.37,0.26,4.79,0.32,7.17,0.46
			c3,0.17,6,0.2,9,0.21c6.16,0.02,12.32-0.06,18.47-0.21c6.08-0.15,12.15-0.35,18.22-0.85c2.67-0.22,5.37-0.09,8.01-0.52
			c1.6-0.26,3.17-0.99,4.33-2.14c1.62-1.6,2.08-3.63,2.33-5.8c0.29-2.54,0.25-5.1,0.54-7.65c0.35-3.12,0.62-6.24,0.34-9.38
			c-0.39-4.43-1.07-8.87-1.09-13.32c-0.02-3.11-2.72-6.1-5.95-5.95C155.18,274.44,152.42,276.92,152.44,280.25L152.44,280.25z"/>
	</g>
</g>
<g id="right_boot">
	<path class="st0" d="M172.06,280.52c0,3.28-0.65,9.89-0.9,13.17c-0.25,3.91,0.38,7.69,0.75,11.6c0.12,1.39-0.12,4.79,0.62,5.93
		c0.88,1.13,3.88,0.76,5.38,0.88c2.88,0.13,5.63,0.5,8.38,0.63c9.5,0.38,18.88,0.63,28.51,0.63c4.5,0,9,0,13.63-0.38
		c2.5-0.25,6.38,0.12,8.38-1.64c2.75-2.4,0.62-7.69,0.37-10.85c-0.12-1.64,0.13-3.91-1.25-5.17c-1.13-1.13-3.5-1.64-5.13-2.14
		c-2.75-0.76-5.63-0.5-8.5-0.38c-5.38,0.13-10.63-0.38-16.13-0.38c-0.88,0-2.38,0.25-3.25-0.13c-1.13-0.88-1.63-3.78-1.63-5.17
		c0-1.64,1.38-3.41,1.25-5.04c-0.12-1.89-2-2.02-3.75-2.27c-5.75-0.88-11.25-1.13-17.13-1.13"/>
	<g>
		<path d="M166.11,280.52c-0.02,4.18-0.51,8.36-0.85,12.52c-0.23,2.8-0.02,5.59,0.28,8.38c0.26,2.38,0.38,4.71,0.5,7.1
			c0.17,3.41,1.01,6.63,4.24,8.36c2.51,1.34,5.37,1.05,8.11,1.2c2.88,0.16,5.75,0.52,8.64,0.64c3.02,0.12,6.04,0.22,9.06,0.31
			c6.15,0.18,12.31,0.29,18.46,0.29c5.63,0,11.22-0.25,16.83-0.53c2.81-0.14,5.79-0.5,8.19-2.11c3.1-2.08,4.59-5.46,4.58-9.15
			c-0.01-2.45-0.6-4.94-1.06-7.34c-0.26-1.34,0.11,1.56,0.02-0.01c-0.03-0.51-0.03-1.02-0.06-1.53c-0.11-1.91-0.41-3.83-1.37-5.52
			c-1.91-3.37-5.49-4.59-8.99-5.59c-3.6-1.03-7.19-0.76-10.87-0.68c-3.3,0.07-6.61-0.12-9.91-0.25c-1.59-0.06-3.19-0.12-4.78-0.13
			c-0.63-0.01-1.26,0.01-1.89,0.04c-0.29,0.02-0.59,0.04-0.88,0.04c-1.46,0,1.09,0.33,0.13,0.01c0.88,0.51,1.75,1.02,2.63,1.53
			c-0.7-0.63,0.89,1.3,0.3,0.41c-0.51-0.77,0.27,1.1,0.18,0.44c-0.07-0.5-0.25-1.26-0.43-1.74c0.44,1.22,0.16,1.12,0.08,0.41
			c-0.03-0.28,0.12-0.91-0.09-0.05c-0.25,1.04,0.06-0.06,0.13-0.28c0.12-0.37,0.27-0.73,0.4-1.09c0.75-1.98,1.11-4.25,0.45-6.32
			c-0.85-2.69-2.93-4.53-5.57-5.38c-1.64-0.53-3.54-0.61-5.23-0.84c-1.73-0.23-3.46-0.42-5.2-0.56c-3.49-0.28-7-0.36-10.5-0.37
			c-3.11,0-6.1,2.74-5.95,5.95c0.14,3.23,2.61,5.95,5.95,5.95c3.34,0,6.69,0.08,10.03,0.33c1.66,0.12,3.31,0.3,4.96,0.5
			c0.98,0.12-1.47-0.22,0.09,0.02c0.32,0.05,0.65,0.09,0.97,0.14c0.27,0.04,0.54,0.07,0.81,0.13c0.39,0.07,1.32,0.57,0.46,0.03
			c-0.74-0.46-1.34-0.78-1.81-1.58c-0.19-0.7-0.38-1.41-0.57-2.11c-0.01,0.5,0.01,0.47,0.06-0.08c0.16-1.08-0.1,0.12-0.16,0.29
			c-0.1,0.31-0.22,0.61-0.34,0.91c-0.58,1.54-0.91,3.17-0.76,4.82c0.36,4,1.74,8.77,6.08,10.06c1.59,0.47,3.09,0.32,4.69,0.29
			c1.75-0.04,3.52,0.05,5.27,0.12c3.3,0.13,6.6,0.31,9.91,0.27c1.59-0.02,3.18-0.15,4.77-0.16c0.69,0,1.72-0.14,2.36,0.1
			c-1.08-0.42-0.57-0.11-0.19-0.01c0.52,0.14,1.04,0.26,1.56,0.41c0.59,0.17,1.18,0.33,1.76,0.52c0.01,0,0.64,0.27,0.7,0.25
			c-0.25-0.11-0.5-0.21-0.75-0.32c0.21,0.1,0.41,0.2,0.61,0.32c0.82,0.39-0.35-0.25-0.45-0.35c-0.16-0.23-0.32-0.46-0.49-0.69
			c0.31,0.54,0.25,0.37-0.17-0.51c0,0,0.12,0.62,0.17,0.67c-0.12-1-0.15-1.18-0.09-0.53c0.01,0.23,0.03,0.47,0.03,0.7
			c0.1,2.64,0.54,5.35,1.12,7.94c-0.42-1.85-0.05-0.18-0.05,0.42c0,0.21-0.02,0.43-0.02,0.64c0,1.18,0.32-1.48,0.02-0.38
			c-0.29,1.05,0.58-1.14,0.23-0.48c-0.23,0.44-0.72,0.83,0.34-0.38c-0.71,0.82,0.98-0.7,0.36-0.27c-1.09,0.76,1.13-0.28,0.09-0.04
			c-0.22,0.05-0.44,0.12-0.66,0.16c-0.11,0.02-0.23,0.04-0.34,0.07c-0.64,0.1-0.46,0.08,0.54-0.07c-0.49-0.09-1.27,0.1-1.77,0.12
			c-1.37,0.06-2.72,0.15-4.09,0.24c-3.4,0.22-6.81,0.26-10.22,0.27c-6.88,0.01-13.76-0.09-20.64-0.29
			c-3.42-0.1-6.84-0.18-10.26-0.36c-2.99-0.16-5.97-0.62-8.97-0.64c-0.62,0-1.25-0.03-1.87-0.03c-1.17-0.01,1.45,0.39,0.39,0.06
			c-0.09-0.02-0.18-0.05-0.27-0.07c0.69,0.2,1.28,0.57,1.77,1.09c0.23,0.29,0.46,0.58,0.68,0.87c0.4,1.05,0.53,1.33,0.4,0.86
			c-0.41-1.22,0.06,1.41,0.01,0.27c-0.03-0.66-0.07-1.32-0.08-1.98c-0.05-3.23-0.63-6.41-0.8-9.63c-0.3-5.68,0.87-11.36,0.9-17.05
			c0.01-3.11-2.75-6.1-5.95-5.95C168.83,274.71,166.13,277.18,166.11,280.52L166.11,280.52z"/>
	</g>
</g>
<g id="Body">
	<path class="st1" d="M48.96,185.54c-0.61-5.42,2.75-14.83,4.27-19.96c1.83-6.56,2.44-13.68,5.5-19.67
		c6.41-12.54,17.71-25.37,31.45-31.08c-7.63-1.71-15.88-0.29-23.51-2.28c5.19-14.54,15.57-33.64,30.84-41.34
		c5.5-2.85,11.91-2,17.71-4.85c7.94-3.71,15.88-6.56,24.73-7.98c15.88-2.28,31.45-9.98,46.72-3.42c6.72,2.85,13.74,3.42,20.76,5.42
		c8.85,2.28,14.66,5.13,21.68,10.83c6.41,5.7,13.74,11.12,17.1,18.82c0.92,2.28,2.44,5.42,2.44,7.7c0.3,5.42-1.83,3.14-6.41,3.71
		c-2.44,0.57-6.41,2.28-8.24,3.71c3.36,7.41,12.21,13.4,17.4,20.24c3.97,5.42,7.33,9.12,9.77,15.68c1.53,3.42,5.8,12.54,3.05,15.68
		c-2.14,2.85-10.69,3.99-14.35,5.7c8.86,4.28,16.18,11.69,22.9,18.53c3.05,2.85,6.72,6.27,8.85,9.69c2.44,4.28,2.75,9.41,4.58,13.97
		c6.41,14.54,19.24,31.65,14.05,48.47c-5.5,0-15.88-1.14-20.46,1.71c2.44,5.13,6.41,9.41,8.55,14.54
		c-6.41,0.85-12.52,0.85-18.93,2.28c-10.69,2.28-21.37,5.99-32.37,7.41c-4.58,0.57-9.77-0.29-14.66,0
		c-27.79,1.14-55.57,0.85-83.36,0.85c-28.09-0.28-58.02,1.14-85.8-2.56c-1.53,0-8.55-0.29-9.46-2.57c-0.61-1.14,1.53-3.99,2.44-4.85
		c-1.53-0.57-5.8,0.28-7.02-0.57c-2.14-1.43-1.22-6.56-1.22-8.84c0-13.4,4.27-26.23,8.85-38.77c4.27-11.69,10.69-22.81,18.02-32.79
		c3.66-4.56,8.55-13.4,14.96-14.83C70.95,175.85,56.6,182.12,48.96,185.54"/>
	<g>
		<path d="M54.91,185.54c-0.1-1.04-0.08-2.08,0.01-3.12c0.02-0.2,0.08-0.48,0.07-0.69c0.09,1.55-0.11,0.76-0.01,0.16
			c0.1-0.62,0.22-1.23,0.34-1.84c0.53-2.53,1.23-5.02,1.98-7.49c0.7-2.31,1.49-4.6,2.08-6.95c0.74-2.97,1.29-5.98,1.99-8.96
			c0.33-1.4,0.68-2.8,1.11-4.18c0.22-0.72,0.46-1.43,0.73-2.13c0.1-0.27,0.2-0.57,0.33-0.83c-0.69,1.4,0.09-0.12,0.23-0.41
			c1.2-2.41,2.57-4.73,4.04-6.98c0.72-1.1,1.46-2.18,2.24-3.24c0.21-0.28,0.41-0.56,0.62-0.84c0.25-0.34,0.92-0.9-0.04,0.04
			c0.54-0.53,0.97-1.23,1.46-1.81c1.86-2.23,3.84-4.36,5.95-6.35c1.13-1.07,2.31-2.1,3.51-3.08c0.22-0.18,0.44-0.35,0.66-0.53
			c0.94-0.76-0.93,0.69,0.31-0.23c0.62-0.46,1.25-0.91,1.89-1.34c1.27-0.86,2.58-1.67,3.92-2.42c0.73-0.41,1.46-0.79,2.21-1.16
			c0.25-0.12,0.5-0.24,0.75-0.36c0.31-0.14,2.06-0.91,0.47-0.24c2.37-0.99,4.5-2.9,4.37-5.74c-0.11-2.52-1.75-5.17-4.37-5.74
			c-4.23-0.91-8.54-1.12-12.85-1.23c-1.94-0.05-3.88-0.1-5.82-0.25c-0.48-0.04-0.96-0.08-1.44-0.13c-0.24-0.02-0.48-0.05-0.72-0.08
			c0.71,0.1,0.84,0.11,0.39,0.05c-1.03-0.19-2.05-0.37-3.07-0.63c1.39,2.44,2.77,4.88,4.16,7.32c0.54-1.51,1.11-3,1.71-4.48
			c0.1-0.25,0.62-1.5,0.25-0.61c-0.4,0.94,0.19-0.44,0.27-0.62c0.34-0.79,0.7-1.57,1.06-2.35c1.51-3.24,3.17-6.41,5.01-9.47
			c0.94-1.57,1.93-3.1,2.96-4.61c0.52-0.75,1.05-1.5,1.59-2.23c0.23-0.31,0.48-0.62,0.71-0.94c-0.08,0.11-0.85,1.08-0.21,0.28
			c0.16-0.2,0.32-0.41,0.49-0.61c2.26-2.78,4.73-5.4,7.47-7.71c0.34-0.28,0.67-0.56,1.02-0.84c1.07-0.85-0.7,0.5,0.13-0.1
			c0.7-0.51,1.41-1.01,2.14-1.48c0.72-0.47,1.46-0.91,2.21-1.33c0.32-0.18,0.64-0.35,0.97-0.52c0.24-0.13,0.49-0.25,0.73-0.37
			c0.68-0.34,0.1-0.17-0.19,0.07c0.65-0.53,2.15-0.71,2.96-0.9c1.01-0.24,2.03-0.43,3.05-0.6c2.07-0.35,4.15-0.65,6.18-1.19
			c2.46-0.65,4.74-1.77,7.05-2.82c0.5-0.23,1.01-0.45,1.52-0.67c0.21-0.09,0.43-0.21,0.65-0.28c-0.19,0.06-1.15,0.47-0.12,0.05
			c1.02-0.42,2.03-0.82,3.06-1.21c4.12-1.56,8.35-2.84,12.66-3.76c4.39-0.93,8.83-1.54,13.21-2.55c4.34-1.01,8.66-2.13,13.03-2.97
			c1.08-0.21,2.16-0.38,3.24-0.56c1.18-0.19-0.92,0.1,0.26-0.04c0.61-0.07,1.23-0.14,1.84-0.2c2.14-0.19,4.29-0.25,6.43-0.13
			c0.53,0.03,1.07,0.07,1.6,0.13c0.07,0.01,0.65,0.02,0.69,0.08c0-0.01-1.49-0.25-0.21-0.02c1.07,0.2,2.14,0.41,3.19,0.69
			c2.2,0.6,4.25,1.56,6.39,2.32c4.28,1.51,8.77,2.28,13.2,3.24c4.07,0.88,8.14,1.93,12.05,3.38c0.43,0.16,0.85,0.32,1.27,0.49
			c1.29,0.52-0.77-0.36,0.17,0.07c0.8,0.37,1.6,0.74,2.39,1.14c1.59,0.82,3.13,1.73,4.62,2.72c0.78,0.52,1.56,1.06,2.31,1.62
			c0.32,0.23,0.65,0.59,1.01,0.76c-0.15-0.07-1.03-0.82-0.19-0.14c0.23,0.18,0.46,0.36,0.69,0.55c1.52,1.28,3,2.61,4.5,3.91
			c2.98,2.59,5.94,5.24,8.45,8.3c0.17,0.2,0.33,0.47,0.52,0.65c-0.02-0.02-0.67-0.92-0.31-0.38c0.27,0.4,0.56,0.78,0.83,1.18
			c0.53,0.8,1.02,1.62,1.47,2.47c0.13,0.24,0.24,0.49,0.37,0.74c0.08,0.16,0.34,0.81,0.03,0.02c-0.34-0.89,0.25,0.59,0.32,0.76
			c0.39,0.92,0.78,1.85,1.1,2.8c0.16,0.46,0.31,0.93,0.43,1.4c0.05,0.19,0.09,0.39,0.14,0.58c0.16,0.64-0.24,0.43-0.06-0.47
			c-0.07,0.33,0.03,0.75,0.04,1.09c0,0.21-0.02,0.43-0.01,0.64c0.04,0.82,0.12-0.7,0.14-0.8c-0.2,1.05,0.37-0.65,0.34-0.6
			c-0.25,0.43,0.85-1.04,0.71-0.9c-0.1,0.1,1.44-1.01,0.87-0.69c-0.18,0.1,1.55-0.62,1.08-0.48c-0.29,0.08,1.19-0.15,1.19-0.15
			c-0.08-0.07-0.61,0.01-0.75,0.01c-1.25-0.04-2.47-0.15-3.72-0.04c-2.56,0.23-4.79,1.14-7.13,2.14c-1.55,0.66-3.09,1.4-4.45,2.41
			c-2.76,2.07-3.63,4.93-2.14,8.14c2.5,5.37,7,9.65,11.17,13.73c2.04,2,4.1,4.01,5.94,6.19c0.1,0.12,0.76,0.76,0.75,0.91
			c0.01-0.05-0.93-1.25-0.19-0.23c0.43,0.59,0.88,1.18,1.32,1.77c0.91,1.21,1.83,2.41,2.72,3.64c1.69,2.35,3.13,4.78,4.41,7.37
			c0.64,1.3-0.31-0.85,0.02,0.02c0.14,0.36,0.28,0.73,0.43,1.09c0.3,0.75,0.62,1.47,0.95,2.21c0.18,0.39,0.35,0.78,0.52,1.18
			c0.1,0.22,0.19,0.44,0.28,0.66c0.18,0.42,0.08,0.18-0.31-0.73c0.08,0.19,0.16,0.39,0.24,0.58c0.87,2.15,1.57,4.32,2.05,6.59
			c0.1,0.46-0.04,0.94-0.08-0.68c0.01,0.29,0.06,0.58,0.07,0.87c0.01,0.18,0.01,0.37,0.01,0.55c-0.02,0.96-0.37,0.27,0.12-0.55
			c-0.06,0.11-0.06,0.34-0.1,0.47c-0.32,0.94,0.8-1.38,0.27-0.58c-0.45,0.68,0.57-0.74,0.56-0.67c-0.04,0.26-0.51,0.41-0.6,0.63
			c0.04-0.1,1.33-0.83,0.62-0.5c-0.28,0.13-0.53,0.33-0.8,0.47c-0.21,0.11-0.43,0.21-0.64,0.32c-0.99,0.49,1.3-0.48,0.29-0.13
			c-1.27,0.45-2.54,0.87-3.84,1.24c-2.79,0.8-5.52,1.53-8.17,2.73c-3.98,1.8-3.8,8.42,0,10.28c1.59,0.78,3.13,1.63,4.62,2.58
			c0.75,0.47,1.48,0.97,2.21,1.48c0.36,0.26,0.72,0.51,1.08,0.78c0.24,0.18,0.48,0.35,0.71,0.53c-0.56-0.43-0.67-0.52-0.32-0.25
			c2.79,2.22,5.44,4.59,8,7.08c2.58,2.51,5.1,5.08,7.69,7.57c1.24,1.19,2.45,2.4,3.59,3.68c0.31,0.34,0.61,0.69,0.9,1.04
			c0.24,0.29,1.24,1.11,0.18,0.2c0.71,0.61,1.17,1.79,1.58,2.6c0.51,1,0.01-0.08-0.07-0.2c0.22,0.31,0.33,0.89,0.45,1.25
			c0.28,0.85,0.53,1.7,0.75,2.57c0.5,1.88,0.91,3.78,1.49,5.63c1.09,3.5,2.83,6.81,4.49,10.07c1.55,3.05,3.16,6.07,4.69,9.14
			c0.71,1.43,1.4,2.87,2.07,4.32c0.18,0.4,0.36,0.79,0.53,1.19c0.12,0.26,0.74,1.63,0.09,0.17c0.41,0.92,0.76,1.86,1.11,2.8
			c0.64,1.73,1.22,3.48,1.69,5.26c0.25,0.94,0.47,1.89,0.66,2.85c0.08,0.41,0.14,0.82,0.22,1.23c0.1,0.66,0.09,0.54-0.03-0.35
			c0.03,0.27,0.07,0.55,0.09,0.82c0.18,1.77,0.23,3.56,0.11,5.34c-0.01,0.2,0.03,1.09-0.11,1.23c0.13-0.9,0.14-1.01,0.04-0.35
			c-0.04,0.27-0.09,0.55-0.14,0.82c-0.19,0.97-0.43,1.93-0.72,2.87c1.91-1.46,3.83-2.91,5.74-4.37c-3.65-0.01-7.29-0.3-10.94-0.21
			c-4.23,0.11-8.8,0.52-12.52,2.73c-2.91,1.74-3.55,5.22-2.14,8.14c2.47,5.07,6.33,9.34,8.55,14.54c1.71-2.99,3.43-5.97,5.14-8.96
			c-4.21,0.55-8.46,0.76-12.68,1.26c-4.6,0.54-9.09,1.46-13.58,2.58c-8.19,2.05-16.3,4.51-24.66,5.79
			c-0.32,0.05-0.66,0.12-0.98,0.15c0.04,0,1.03-0.11,0.38-0.05c-0.45,0.04-0.9,0.09-1.35,0.12c-1,0.06-2.01,0.07-3.02,0.05
			c-2.08-0.03-4.16-0.18-6.24-0.23c-4.31-0.11-8.64,0.23-12.95,0.36c-8.85,0.27-17.71,0.42-26.57,0.49
			c-17.6,0.15-35.2,0.07-52.8,0.01c-17.05-0.06-34.11,0.33-51.15-0.24c-8.4-0.28-16.81-0.8-25.16-1.75
			c-2.63-0.3-5.24-0.57-7.88-0.76c-0.64-0.05,1,0.15,0.87,0.12c-0.14-0.03-0.29-0.04-0.43-0.07c-0.33-0.06-0.67-0.11-1-0.18
			c-0.59-0.12-1.15-0.35-1.73-0.48c-0.51-0.12,0.88,0.39,0.84,0.36c-0.08-0.07-0.22-0.09-0.31-0.16c-0.82-0.57,0.73,0.68,0.51,0.45
			c0.31,0.33,0.57,0.8,0.76,1.25c0.22,0.54,0.4,1.13,0.41,1.72c0,0.05-0.27,1.65-0.05,0.85c-0.02,0.09-0.73,1.38-0.24,0.61
			c0.08-0.13,0.15-0.28,0.23-0.41c0.16-0.27,0.37-0.53,0.52-0.8c0.2-0.36-0.93,1.06-0.21,0.27c0.18-0.2,0.35-0.39,0.54-0.58
			c3.31-3.23,1.56-8.63-2.63-9.95c-1.61-0.51-3.37-0.44-5.04-0.4c-0.69,0.02-1.41-0.06-2.09-0.01c-0.6,0.04,0.98,0.15,0.91,0.13
			c-0.27-0.06-0.61-0.22,0.28,0.18c0.53,0.23,1.48,0.99,1.76,1.46c-0.27-0.46,0.33,0.9,0.32,0.83c-0.01-0.13-0.1-0.27-0.12-0.4
			c-0.05-0.25-0.24-1.32-0.09-0.24c0.16,1.1,0.02-0.18,0.02-0.48c-0.01-0.38,0-0.77,0.01-1.15c0.04-1.28,0.17-2.55,0.18-3.83
			c0.02-2.22,0.13-4.44,0.36-6.65c0.05-0.49,0.11-0.98,0.17-1.47c0.14-1.19-0.13,0.82,0.05-0.37c0.18-1.13,0.36-2.26,0.58-3.39
			c0.81-4.28,1.94-8.5,3.23-12.66c1.27-4.1,2.7-8.15,4.17-12.18c0.35-0.97,0.72-1.93,1.1-2.89c0.17-0.44,0.35-0.88,0.53-1.32
			c0.04-0.11,0.36-0.84,0.07-0.16c-0.34,0.79,0.25-0.59,0.26-0.6c0.82-1.89,1.7-3.76,2.62-5.6c1.84-3.7,3.87-7.31,6.04-10.82
			c1.12-1.82,2.29-3.61,3.49-5.38c0.53-0.78,1.07-1.56,1.62-2.33c0.32-0.45,0.64-0.9,0.96-1.34c0.14-0.19,0.28-0.38,0.41-0.57
			c0.5-0.75-0.61,0.82-0.25,0.3c1.16-1.64,2.42-3.21,3.6-4.84c0.49-0.68,0.98-1.35,1.48-2.02c0.11-0.15,0.22-0.29,0.33-0.44
			c0.76-1.01-0.62,0.77-0.14,0.19c0.27-0.33,0.54-0.67,0.81-1c0.58-0.7,1.19-1.38,1.82-2.04c0.29-0.3,0.59-0.59,0.89-0.88
			c0.27-0.25,0.89-0.61,1.05-0.92c0-0.01-1.04,0.73-0.53,0.41c0.19-0.12,0.36-0.26,0.55-0.39c0.32-0.21,0.65-0.42,0.98-0.6
			c0.14-0.08,0.29-0.15,0.43-0.23c0.9-0.49-0.06,0.15-0.4,0.15c0.34,0,0.86-0.28,1.2-0.36c3.03-0.73,5.12-4.33,4.16-7.32
			c-1.05-3.25-4.04-4.8-7.32-4.16c-5.51,1.09-10.85,3.09-16.07,5.13c-5.46,2.14-10.84,4.47-16.2,6.87
			c-2.85,1.28-3.75,5.64-2.14,8.14c1.9,2.95,5.09,3.5,8.14,2.14c2.2-0.99,4.41-1.96,6.62-2.91c0.34-0.15,0.69-0.29,1.03-0.44
			c1.24-0.53-1.28,0.53-0.01,0c0.6-0.25,1.2-0.5,1.81-0.75c1.42-0.59,2.85-1.16,4.28-1.72c5.1-1.99,10.31-3.92,15.69-4.99
			c-1.05-3.83-2.11-7.65-3.16-11.48c-7.71,1.86-12.43,9.24-16.78,15.24c-0.22,0.3-0.44,0.61-0.66,0.91
			c-0.15,0.2-0.95,1.25-0.26,0.36c0.58-0.75,0.24-0.32,0.11-0.15c-0.41,0.52-0.81,1.05-1.21,1.58c-0.37,0.51-0.74,1.02-1.1,1.53
			c-1.28,1.8-2.53,3.63-3.73,5.48c-2.42,3.73-4.68,7.57-6.74,11.51c-4.38,8.39-7.7,17.3-10.58,26.31
			c-2.93,9.16-5.1,18.71-5.25,28.37c-0.06,4.02-0.88,8.51,1.36,12.14c1.71,2.78,4.43,3.88,7.57,4.03c0.88,0.04,1.76-0.01,2.64-0.03
			c0.42-0.01,0.85,0.01,1.27,0c1.25-0.03-1.44-0.39-0.24-0.01c-0.88-3.32-1.75-6.63-2.63-9.95c-3.14,3.06-5.63,7.9-3.34,12.14
			c1.7,3.14,5.42,4.42,8.74,4.91c2.98,0.44,5.98,0.57,8.96,0.92c4.31,0.51,8.64,0.91,12.97,1.21c17.54,1.23,35.13,1.01,52.7,0.94
			c18.08-0.08,36.16,0.09,54.24,0.04c9.12-0.03,18.24-0.11,27.35-0.3c8.97-0.19,17.95-0.78,26.92-0.44
			c9.01,0.35,17.89-2.03,26.54-4.3c4.22-1.11,8.44-2.25,12.71-3.2c0.98-0.22,1.97-0.44,2.96-0.62c0.58-0.11,1.17-0.21,1.75-0.3
			c0.25-0.04,0.5-0.07,0.75-0.11c0.91-0.14-1,0.11-0.09,0.01c2.23-0.24,4.45-0.46,6.68-0.65c2.17-0.19,4.34-0.39,6.5-0.67
			c2.16-0.28,3.97-0.96,5.14-2.95c1.18-2.01,0.87-3.98,0-6.01c-2.23-5.2-6.09-9.47-8.55-14.54c-0.71,2.71-1.42,5.43-2.14,8.14
			c0.31-0.18,0.65-0.32,0.96-0.5c-1.57,0.92-0.64,0.28-0.05,0.1c0.72-0.22,1.45-0.35,2.19-0.49c0.63-0.1,0.45-0.08-0.57,0.07
			c0.23-0.03,0.46-0.05,0.7-0.08c0.48-0.05,0.96-0.09,1.43-0.12c0.86-0.05,1.73-0.08,2.59-0.09c3.4-0.04,6.8,0.21,10.2,0.22
			c2.66,0.01,4.99-1.86,5.74-4.37c4.59-15.32-3.07-30.23-9.95-43.51c-0.8-1.55-1.6-3.1-2.38-4.66c-0.73-1.46-1.29-3.15-2.15-4.52
			c0.03,0.04,0.39,1.09,0.2,0.44c-0.08-0.28-0.2-0.56-0.3-0.84c-0.14-0.42-0.27-0.85-0.4-1.28c-0.27-0.93-0.51-1.88-0.75-2.82
			c-0.45-1.8-0.89-3.62-1.53-5.37c-0.75-2.08-1.63-4.08-2.94-5.87c-1.34-1.83-2.8-3.56-4.37-5.19c-2.59-2.67-5.32-5.22-7.96-7.85
			c-6.13-6.1-12.76-12.08-20.59-15.91c0,3.43,0,6.85,0,10.28c0.93-0.42-1.51,0.57-0.49,0.21c0.26-0.09,0.53-0.19,0.79-0.28
			c0.48-0.16,0.97-0.31,1.46-0.46c1.24-0.37,2.5-0.7,3.74-1.06c2.56-0.74,5.31-1.53,7.56-2.99c3.11-2.01,4.85-4.92,5.11-8.62
			c0.19-2.64-0.49-5.43-1.31-7.93c-0.83-2.53-1.9-4.98-2.98-7.4c-0.08-0.18-0.16-0.35-0.24-0.53c-0.32-0.72-0.08,0.33,0.22,0.5
			c-0.18-0.11-0.43-1.07-0.52-1.28c-0.25-0.61-0.51-1.23-0.78-1.83c-0.69-1.54-1.47-3.02-2.36-4.45c-1.57-2.55-3.42-4.91-5.22-7.31
			c-2.04-2.72-4.1-5.35-6.48-7.78c-2.42-2.47-4.96-4.82-7.33-7.34c-0.55-0.59-1.1-1.19-1.62-1.8c-0.26-0.3-0.51-0.61-0.76-0.91
			c-0.76-0.89,0.7,1-0.03-0.03c-0.95-1.33-1.82-2.68-2.51-4.17c-0.71,2.71-1.42,5.43-2.14,8.14c0.62-0.46,1.28-0.87,1.96-1.23
			c0.4-0.21,0.8-0.41,1.21-0.61c0.24-0.11,0.49-0.22,0.72-0.33c0.71-0.34-1.38,0.53-0.13,0.06c0.8-0.3,1.66-0.51,2.45-0.83
			c0.24-0.1,0.75-0.09-0.16-0.03c-1.02,0.06-0.25,0.02,0,0.01c0.39-0.01,0.79-0.03,1.18-0.02c1.57,0.03,2.98,0.17,4.55-0.14
			c2.63-0.52,4.58-2.62,5.4-5.1c1.4-4.25-0.23-8.81-1.86-12.71c-1.89-4.53-4.35-8.39-7.69-12.01c-2.85-3.08-6.07-5.77-9.23-8.51
			c-3.34-2.89-6.79-5.67-10.6-7.91c-7.64-4.49-16.27-6.56-24.85-8.36c-2.29-0.48-4.58-0.98-6.83-1.63
			c-2.29-0.66-4.44-1.62-6.67-2.41c-4.69-1.68-9.86-2.26-14.83-2.05c-9.65,0.41-18.89,3.42-28.29,5.32
			c-4.63,0.93-9.27,1.55-13.83,2.83c-4.8,1.35-9.45,3.16-14.02,5.15c-1.02,0.44-2.03,0.9-3.03,1.37c-0.21,0.1-1.11,0.35-0.36,0.19
			c0.69-0.15,0,0-0.15,0.05c-0.65,0.23-1.3,0.44-1.96,0.62c-2.1,0.57-4.26,0.88-6.4,1.25c-4.47,0.77-8.58,2.3-12.41,4.76
			c-13.68,8.77-22.42,23.62-28.44,38.33c-0.63,1.54-1.22,3.09-1.78,4.65c-1.07,2.98,1.22,6.58,4.16,7.32
			c4.19,1.06,8.54,1.32,12.85,1.45c1.94,0.05,3.88,0.09,5.82,0.21c0.96,0.06,1.92,0.16,2.88,0.25c0.45,0.05,0.32,0.03-0.39-0.06
			c0.24,0.03,0.47,0.07,0.71,0.11c0.55,0.09,1.1,0.2,1.64,0.32c0-3.83,0-7.65,0-11.48c-12.08,5.08-21.77,13.85-29.32,24.47
			c-3.62,5.08-6.79,10.61-8.54,16.64c-1.66,5.72-2.55,11.6-4.32,17.3c-0.89,2.86-1.76,5.73-2.41,8.65c-0.68,3.03-1.31,6.28-1,9.39
			c0.31,3.09,2.52,6.11,5.95,5.95C51.92,191.36,55.24,188.86,54.91,185.54L54.91,185.54z"/>
	</g>
</g>
<g id="Left_Horn">
	<path d="M85.83,77.46c-5.5-7.13-12.36-16.37-11.45-25.78c0.92-9.12,5.5-16.82,9.77-24.8c0.61,3.42-0.61,6.84,0,10.26
		c0.61,3.71,2.75,6.56,4.89,9.98c4.27,6.56,11.03,14.86,17.75,19.14c-3.05,0-4.52,2.29-7.58,2.58c-2.14,0.28-4.35,2.26-6.77,4.11
		C89.25,75.39,86.72,79.72,85.83,77.46"/>
	<g>
		<path d="M90.97,74.45c-2.7-3.5-5.36-7.05-7.52-10.92c-0.55-0.99-1.04-2-1.53-3.01c-0.27-0.6-0.23-0.51,0.1,0.27
			c-0.11-0.26-0.21-0.51-0.31-0.77c-0.2-0.51-0.38-1.03-0.55-1.56c-0.33-1.04-0.56-2.09-0.79-3.16c-0.11-0.66-0.09-0.53,0.03,0.39
			c-0.03-0.27-0.06-0.53-0.08-0.8c-0.04-0.53-0.06-1.07-0.06-1.61c0-0.54,0.03-1.08,0.08-1.61c0.03-0.29,0.06-0.59,0.1-0.88
			c-0.12,0.86-0.12,0.95-0.02,0.28c0.23-1.14,0.44-2.27,0.73-3.39c0.29-1.11,0.63-2.2,1.01-3.28c0.19-0.54,0.39-1.07,0.6-1.61
			c0.13-0.33,0.67-2.13,0.22-0.56c0.31-1.06,0.96-2.13,1.45-3.13c0.51-1.04,1.03-2.07,1.57-3.09c1.08-2.06,2.2-4.1,3.3-6.15
			c-3.63-0.47-7.25-0.95-10.88-1.42c-0.25-1.59-0.04,0.41-0.04,0.75c0,0.62-0.05,1.25-0.1,1.87c-0.08,1.09-0.21,2.17-0.25,3.27
			c-0.08,2.44,0.3,4.94,1.17,7.22c1.56,4.09,4.08,7.81,6.6,11.37c4.96,7,10.71,13.77,17.97,18.47c1-3.7,2-7.39,3-11.09
			c-2.95,0.1-5.45,1.23-7.99,2.62c-0.61,0.33,1.3-0.4,0.3-0.14c-0.16,0.04-0.59,0.09-0.7,0.19c0.27-0.03,0.55-0.06,0.82-0.1
			c-0.53,0.07-1.05,0.14-1.58,0.21c-0.29,0.05-0.57,0.11-0.85,0.2c-1.5,0.48-2.92,1.21-4.21,2.12c-0.64,0.45-1.25,0.93-1.87,1.41
			c-0.45,0.35-0.9,0.69-1.34,1.04c-0.5,0.39-0.32,0.25,0.07-0.05c-1.21,0.9-2.34,1.85-3.4,2.92c-0.66,0.67-1.3,1.38-1.98,2.03
			c-0.03,0.03-0.48,0.47-0.5,0.46c-0.04-0.03,1.28-0.9,0.66-0.52c-0.06,0.03-0.11,0.07-0.17,0.1c1.17-0.77,2.4-0.69,3.69,0.22
			c1.36-0.18,2.34,0.2,2.94,1.16C91.06,74.72,91.15,74.81,90.97,74.45c-1.29-2.84-5.63-3.75-8.14-2.14
			c-2.94,1.89-3.52,5.1-2.14,8.14c0.98,2.15,3.48,3.55,5.78,3.58c2.1,0.02,3.77-0.96,5.32-2.25c0.73-0.61,1.38-1.31,2.04-2
			c0.42-0.44,0.84-0.87,1.28-1.29c0.22-0.22,0.45-0.43,0.68-0.63c0.14-0.12,0.93-0.87,0.3-0.28c-0.47,0.36-0.36,0.27,0.33-0.26
			c0.33-0.25,0.65-0.5,0.98-0.76c0.25-0.19,0.49-0.4,0.74-0.58c-1.08,0.77-0.16,0.13,0.07-0.04c0.29-0.21,0.59-0.43,0.89-0.62
			c0.29-0.19,0.58-0.37,0.88-0.53c1.12-0.62-0.07,0.16-0.21,0.04c0.11-0.04,0.23-0.07,0.34-0.11c0.48-0.11,0.45-0.12-0.09-0.03
			c-0.69,0.09-0.57,0.07,0.36-0.05c0.39-0.04,0.78-0.1,1.16-0.18c1.51-0.34,2.94-1.07,4.3-1.8c0.2-0.11,0.39-0.21,0.59-0.31
			c0.14-0.07,1.17-0.56,0.2-0.13c-0.93,0.42,0.04,0.05,0.26-0.04c1.04-0.38-1.38,0.07-0.12,0.03c2.52-0.08,5.15-1.78,5.74-4.37
			c0.61-2.66-0.44-5.24-2.74-6.72c-0.74-0.48-1.43-1.04-2.17-1.51c1.44,0.92-0.03-0.04-0.34-0.3c-0.31-0.26-0.61-0.52-0.92-0.79
			c-1.46-1.29-2.84-2.66-4.16-4.08c-1.25-1.34-2.45-2.73-3.6-4.16c-0.35-0.43-0.72-0.85-1.04-1.31c0.14,0.18,0.28,0.37,0.43,0.55
			c-0.17-0.22-0.33-0.43-0.49-0.65c-0.56-0.74-1.1-1.5-1.64-2.26c-1.06-1.5-2.04-3.05-3.03-4.6c-0.5-0.79-1.01-1.59-1.47-2.4
			c-0.28-0.49-0.52-0.99-0.78-1.49c-0.64-1.22,0.37,1.21-0.05-0.11c-0.17-0.53-0.35-1.06-0.48-1.61c-0.03-0.14-0.06-0.28-0.09-0.42
			c-0.11-0.64-0.11-0.56,0.01,0.23c-0.35-0.76-0.02-2.45,0.04-3.27c0.21-2.65,0.28-5-0.13-7.65c-0.35-2.28-2.87-3.98-4.95-4.26
			c-2.27-0.3-4.81,0.74-5.93,2.84c-3.76,7.01-7.87,14.09-9.66,21.92c-1.02,4.46-1.29,8.79-0.36,13.28
			c0.82,3.94,2.58,7.75,4.59,11.22c2.08,3.58,4.58,6.9,7.1,10.18c0.99,1.29,1.92,2.29,3.56,2.74c1.42,0.39,3.32,0.22,4.59-0.6
			C91.27,81.03,93.01,77.09,90.97,74.45L90.97,74.45z"/>
	</g>
</g>
<g id="Right_Horn">
	<path d="M206.8,56.81c9.77-1.43,15.07-5.71,22.4-12.55c4.28-4.28,4.58-10.55,5.5-16.25c4.89,10.83,2.75,19.39-2.14,29.65
		c-1.83,3.71-2.75,7.41-6.72,7.41c-3.97-0.29-6.93-3.35-9.98-5.92C210.37,57.86,201,57.67,206.8,56.81"/>
	<g>
		<path d="M208.38,62.55c4.12-0.62,8.08-1.91,11.78-3.85c3.43-1.8,6.52-4.25,9.44-6.78c1.47-1.28,3.05-2.56,4.34-4.02
			c1.83-2.07,3.05-4.24,4.07-6.79c1.47-3.68,1.81-7.64,2.42-11.52c-3.63,0.47-7.25,0.95-10.88,1.42c0.47,1.06,0.08,0.08-0.03-0.08
			c0.15,0.22,0.25,0.62,0.34,0.88c0.21,0.57,0.41,1.15,0.59,1.74c0.36,1.18,0.66,2.38,0.87,3.59c0.04,0.23,0.14,1.15,0.05,0.24
			c-0.09-0.91-0.01,0.01,0.01,0.23c0.05,0.54,0.08,1.08,0.1,1.62c0.03,1.14-0.01,2.27-0.12,3.41c-0.03,0.26-0.08,0.53-0.09,0.8
			c0.01-0.15,0.24-1.43,0.04-0.39c-0.1,0.53-0.19,1.06-0.31,1.59c-0.24,1.08-0.53,2.14-0.86,3.19c-0.34,1.09-0.73,2.17-1.15,3.23
			c-0.12,0.3-0.73,2.09-0.25,0.64c-0.21,0.64-0.56,1.27-0.84,1.89c-0.85,1.83-1.62,3.76-2.64,5.5c-0.11,0.18-0.23,0.35-0.33,0.53
			c-0.3,0.51-0.47,0.12,0.39-0.48c-0.12,0.08-0.31,0.33-0.4,0.43c-0.4,0.47-0.43-0.15,0.54-0.39c-0.11,0.03-0.26,0.16-0.37,0.22
			c-0.63,0.34,1.29-0.51,0.61-0.27c-0.23,0.08-0.98,0.24,0.01,0.04c0.58-0.07,0.62-0.08,0.11-0.06c0.28,0.04,0.55,0.08,0.83,0.12
			c-0.42-0.18-1-0.24-1.44-0.37c-0.94-0.25,0.27,0.07,0.39,0.18c-0.14-0.13-0.48-0.24-0.66-0.34c-0.44-0.24-0.87-0.51-1.28-0.79
			c-0.21-0.14-0.42-0.29-0.62-0.44c-0.88-0.63,0.69,0.58,0.14,0.1c-0.79-0.68-1.59-1.34-2.38-2.02c-0.62-0.54-1.25-1.12-1.94-1.56
			c-0.8-0.51-1.72-0.68-2.63-0.86c-2.34-0.46-4.71-0.73-7.07-1.03c-0.48-0.06-0.95-0.12-1.43-0.18c-0.95-0.12,1.74,0.26,0.27,0.03
			c-0.27-0.04-0.54-0.1-0.81-0.14c-0.09-0.02-0.17-0.05-0.26-0.06c0.82,0.12,2.72,1.62,3.18,2.54c0.27,1,0.54,2,0.81,3
			c0-0.01,0-0.02,0-0.03c-0.27,1-0.54,2-0.81,3c-1.11,0.86-2.22,1.73-3.33,2.59c0.04-0.01,0.08-0.02,0.11-0.04
			c0.13-0.01,0.26-0.07,0.39-0.1C207.64,62.66,208.01,62.61,208.38,62.55c1.38-0.21,2.89-1.59,3.56-2.74
			c0.75-1.28,1.06-3.16,0.6-4.59c-1.09-3.36-4.01-4.66-7.32-4.16c-2.99,0.46-5.65,2.18-6.09,5.42c-0.47,3.48,2,6.31,5.32,6.91
			c1.87,0.34,3.77,0.52,5.65,0.76c0.21,0.03,0.43,0.06,0.64,0.08c-0.17-0.02-1.43-0.2-0.6-0.08c0.44,0.06,0.88,0.13,1.32,0.2
			c0.94,0.15,1.88,0.32,2.81,0.54c-0.88-0.51-1.75-1.02-2.63-1.53c3.34,2.83,6.61,5.96,10.94,7.15c5.29,1.46,10.24-0.76,12.97-5.42
			c0.87-1.48,1.5-3.1,2.24-4.65c1.09-2.3,2.11-4.65,3.01-7.03c1.5-4.02,2.46-8.27,2.6-12.57c0.17-5.56-1.33-10.81-3.56-15.85
			c-0.94-2.13-3.83-3.12-5.93-2.84c-2.12,0.28-4.59,1.97-4.95,4.26c-0.57,3.62-0.89,7.35-2.15,10.82c-0.04,0.12-0.09,0.23-0.13,0.35
			c-0.24,0.59-0.18,0.46,0.16-0.39c-0.14,0.03-0.59,1.16-0.69,1.33c-0.19,0.33-0.4,0.64-0.61,0.95c-0.37,0.51-0.29,0.41,0.24-0.3
			c-0.17,0.2-0.34,0.39-0.51,0.58c-1.26,1.33-2.7,2.53-4.08,3.74c-0.65,0.56-1.3,1.11-1.97,1.65c-0.19,0.15-0.37,0.3-0.56,0.44
			c0.69-0.53,0.86-0.66,0.51-0.39c-0.33,0.24-0.65,0.48-0.98,0.72c-1.29,0.92-2.63,1.76-4.03,2.5c-0.4,0.21-0.8,0.41-1.21,0.6
			c-0.45,0.21-1.36,0.38,0.17-0.05c-0.78,0.22-1.53,0.59-2.31,0.84c-1.82,0.58-3.69,0.98-5.58,1.26c-1.37,0.21-2.89,1.59-3.56,2.74
			c-0.75,1.28-1.06,3.16-0.6,4.59c0.47,1.44,1.36,2.83,2.74,3.56C205.3,62.75,206.71,62.8,208.38,62.55L208.38,62.55z"/>
	</g>
</g>
<g id="Face">
	<path class="st2" d="M105.22,184.25c-6.22-12.18-10.99-51.6,6.41-70.99c5.5-5.99,8.55-8.55,17.1-9.12
		c16.18-0.86,32.37,0,48.24-0.57c8.85-0.29,21.07-3.14,28.4,2.28c6.72,5.13,12.52,17.39,14.96,25.09
		c3.66,13.4,8.25,30.51,3.05,43.62c-3.66,10.55-15.27,14.54-26.26,15.97c-13.74,1.71-26.56,3.99-40.3,3.99
		C138.5,194.51,120.79,193.94,105.22,184.25"/>
	<g>
		<path d="M110.36,181.24c-0.15-0.29-0.29-0.59-0.43-0.89c-0.07-0.16-0.14-0.32-0.21-0.48c-0.37-0.81,0.64,1.59,0.32,0.75
			c-0.28-0.73-0.57-1.47-0.82-2.21c-0.59-1.73-1.07-3.5-1.49-5.27c-0.49-2.05-0.89-4.13-1.22-6.22c-0.08-0.51-0.15-1.02-0.23-1.53
			c-0.07-0.45-0.14-1.31,0.08,0.59c-0.03-0.29-0.07-0.58-0.11-0.86c-0.16-1.28-0.29-2.56-0.39-3.84c-0.41-4.92-0.47-9.88-0.13-14.81
			c0.09-1.29,0.2-2.59,0.35-3.87c0.06-0.51,0.36-2.41,0.03-0.35c0.12-0.75,0.22-1.5,0.34-2.24c0.42-2.54,0.98-5.06,1.69-7.53
			c0.32-1.12,0.67-2.23,1.06-3.32c0.21-0.59,0.43-1.18,0.66-1.77c0.11-0.29,0.24-0.58,0.35-0.87c-0.65,1.78-0.23,0.55-0.04,0.13
			c0.98-2.2,2.13-4.32,3.47-6.32c0.34-0.5,0.69-0.99,1.05-1.49c0.68-0.94-0.93,1.14-0.19,0.24c0.19-0.23,0.38-0.47,0.57-0.7
			c0.88-1.05,1.83-2.05,2.78-3.03c0.81-0.83,1.65-1.65,2.53-2.4c0.22-0.19,0.46-0.36,0.68-0.56c-1.34,1.21-0.68,0.52-0.29,0.25
			c0.53-0.37,1.08-0.72,1.65-1.03c0.24-0.13,0.49-0.26,0.74-0.38c0.49-0.23,1.27-0.32-0.39,0.15c0.47-0.13,0.92-0.34,1.39-0.48
			c0.6-0.18,1.21-0.33,1.83-0.46c0.33-0.07,0.66-0.12,0.99-0.18c0.63-0.1,0.46-0.08-0.53,0.06c0.24-0.03,0.49-0.06,0.74-0.09
			c3.63-0.38,7.33-0.39,10.97-0.46c7.89-0.15,15.79-0.04,23.68-0.03c6.97,0.01,13.96,0,20.91-0.62c2.94-0.26,5.87-0.54,8.82-0.59
			c1.48-0.03,2.97,0.01,4.44,0.14c0.35,0.03,0.72,0.11,1.08,0.12c-0.1,0-1.51-0.26-0.52-0.06c0.8,0.16,1.6,0.31,2.38,0.54
			c0.33,0.09,0.66,0.2,0.98,0.31c0.63,0.22,0.95,0.71-0.16-0.1c0.48,0.35,1.12,0.55,1.64,0.86c0.2,0.12,0.48,0.4,0.7,0.46
			c-0.23-0.18-0.46-0.36-0.69-0.55c0.16,0.13,0.32,0.26,0.48,0.39c0.57,0.48,1.12,1,1.64,1.54c0.47,0.49,0.93,0.99,1.37,1.51
			c0.15,0.18,0.3,0.36,0.45,0.54c0.07,0.09,0.15,0.18,0.22,0.28c0.39,0.49,0.29,0.37-0.27-0.36c0.23,0.6,0.91,1.25,1.28,1.79
			c0.49,0.72,0.96,1.46,1.42,2.21c1.51,2.47,2.85,5.06,4.06,7.69c0.2,0.44,1.08,2.74,0.42,0.9c0.24,0.65,0.53,1.28,0.78,1.93
			c0.46,1.18,0.9,2.37,1.28,3.58c1.95,6.25,3.47,12.78,4.51,19.24c0.07,0.42,0.13,0.84,0.19,1.26c0.17,1.08-0.01-0.16-0.04-0.32
			c0.17,0.82,0.21,1.7,0.29,2.53c0.18,1.81,0.28,3.62,0.3,5.44c0.01,1.5-0.04,3.01-0.16,4.51c-0.03,0.4-0.08,0.8-0.12,1.21
			c-0.14,1.42,0.25-1.38,0,0.01c-0.14,0.78-0.27,1.57-0.45,2.35c-0.35,1.54-0.83,3.03-1.38,4.51c-0.12,0.31-0.29,0.66-0.37,0.98
			c0.32-1.29,0.4-0.89,0.18-0.48c-0.36,0.7-0.72,1.39-1.14,2.05c-0.18,0.28-0.37,0.54-0.56,0.82c-0.68,1.01,0.93-1.07,0.13-0.17
			c-0.4,0.45-0.79,0.9-1.21,1.33c-0.42,0.42-0.87,0.83-1.32,1.22c-0.4,0.34-1.2,0.65,0.18-0.11c-0.38,0.21-0.72,0.52-1.08,0.76
			c-1.02,0.68-2.1,1.29-3.2,1.84c-0.31,0.15-0.61,0.3-0.92,0.44c-0.47,0.22-1.38,0.33,0.16-0.06c-0.77,0.19-1.53,0.59-2.28,0.84
			c-2.56,0.86-5.21,1.48-7.87,1.94c-0.69,0.12-1.4,0.19-2.09,0.32c1.97-0.38,0.32-0.05-0.09,0c-0.49,0.06-0.98,0.12-1.46,0.19
			c-2.3,0.3-4.6,0.61-6.9,0.92c-0.96,0.13-1.92,0.26-2.88,0.39c-0.25,0.03-1.87,0.25-0.33,0.04c-0.48,0.06-0.95,0.13-1.43,0.19
			c-1.9,0.25-3.8,0.5-5.7,0.72c-7.59,0.91-15.18,1.43-22.82,1.41c-6.75-0.02-13.52-0.16-20.24-0.91c-0.42-0.05-0.84-0.1-1.26-0.15
			c-0.41-0.05-1.7,0-0.09-0.01c-0.81,0.01-1.7-0.25-2.5-0.38c-1.65-0.28-3.3-0.6-4.93-0.98c-3.27-0.76-6.49-1.74-9.6-2.98
			c-0.32-0.13-1.64-0.49-0.14-0.05c-0.25-0.07-0.54-0.24-0.78-0.34c-0.78-0.35-1.55-0.72-2.31-1.1c-1.55-0.78-3.06-1.63-4.54-2.55
			c-2.65-1.64-6.67-0.66-8.14,2.14c-1.54,2.91-0.7,6.4,2.14,8.14c12.89,7.96,27.92,10.37,42.84,10.91
			c7.62,0.27,15.28,0.3,22.89-0.29c8.19-0.63,16.31-1.85,24.45-2.92c-1.53,0.2,0.11-0.01,0.35-0.05c0.49-0.06,0.97-0.13,1.46-0.19
			c0.98-0.13,1.95-0.25,2.93-0.37c1.93-0.25,3.85-0.51,5.76-0.88c2.87-0.56,5.72-1.32,8.44-2.4c6.31-2.5,12.09-6.26,15.62-12.22
			c3.6-6.07,4.78-13.62,4.72-20.57c-0.07-7.43-1.48-14.86-3.23-22.05c-0.78-3.18-1.52-6.43-2.54-9.55
			c-1.01-3.06-2.25-6.05-3.58-8.98c-2.67-5.85-6.04-11.71-10.61-16.3c-10.09-10.13-24.95-6.14-37.65-5.82
			c-8.18,0.21-16.36,0.09-24.54,0.08c-4.12-0.01-8.24,0.01-12.36,0.1c-3.69,0.08-7.42,0.1-11.08,0.57c-3.42,0.44-6.62,1.2-9.68,2.87
			c-2.51,1.37-4.74,3.33-6.74,5.37c-3.99,4.05-7.37,8.61-9.71,13.81c-4.71,10.43-6.44,21.95-6.33,33.35
			c0.05,5.45,0.57,10.87,1.42,16.25c0.63,4.02,1.5,8.03,2.84,11.88c0.63,1.8,1.35,3.58,2.21,5.28c1.41,2.78,5.55,3.8,8.14,2.14
			C111.07,187.55,111.87,184.22,110.36,181.24L110.36,181.24z"/>
	</g>
</g>
<g id="Smile">
	<g>
		<path d="M148.34,164.16c1.93,5.92,6.56,11.22,12.98,12.22c2.9,0.45,5.85,0.41,8.62-0.68c3.26-1.29,5.79-3.25,7.85-6.08
			c2.1-2.89,2.98-6.65,3.01-10.18c0.03-3.11-2.76-6.09-5.95-5.95c-3.25,0.15-5.92,2.61-5.95,5.95c-0.01,0.66-0.05,1.31-0.13,1.96
			c0.07-0.53,0.14-1.05,0.21-1.58c-0.09,0.6-0.21,1.2-0.38,1.78c-0.09,0.31-0.23,0.61-0.31,0.92c-0.16,0.58,0.63-1.37,0.35-0.84
			c-0.06,0.12-0.12,0.25-0.18,0.38c-0.24,0.49-0.53,0.93-0.83,1.39c-0.56,0.86,1.02-1.17,0.32-0.43c-0.2,0.21-0.39,0.43-0.6,0.63
			c-0.18,0.18-0.38,0.34-0.57,0.51c-0.48,0.45,1.4-0.97,0.45-0.36c-0.42,0.27-0.85,0.52-1.29,0.75c-1,0.53,1.19-0.43,0.57-0.23
			c-0.26,0.09-0.52,0.19-0.79,0.27c-0.5,0.15-1.02,0.25-1.54,0.33c0.53-0.07,1.05-0.14,1.58-0.21c-0.93,0.12-1.85,0.12-2.77,0
			c0.53,0.07,1.05,0.14,1.58,0.21c-0.43-0.06-0.86-0.15-1.28-0.26c-0.24-0.07-0.48-0.15-0.72-0.22c-1.05-0.32,0.74,0.23,0.71,0.32
			c0,0-1.09-0.55-1.2-0.62c-0.22-0.14-0.43-0.29-0.66-0.43c-0.77-0.49,1.3,1.12,0.5,0.38c-0.36-0.33-0.71-0.65-1.03-1.01
			c-0.35-0.39-0.81-1.19,0.32,0.46c-0.14-0.21-0.3-0.41-0.44-0.63c-0.29-0.45-0.55-0.91-0.79-1.39c-0.24-0.49-0.41-1.4,0.16,0.43
			c-0.1-0.32-0.23-0.63-0.33-0.95c-0.96-2.96-4.16-5.18-7.32-4.16C149.55,157.8,147.31,160.99,148.34,164.16L148.34,164.16z"/>
	</g>
</g>
<g id="left_eye_4_">
	<path d="M142.18,138.64"/>
	<g>
		<path class="st3" d="M142.18,144.59c3.11,0,6.1-2.74,5.95-5.95c-0.14-3.22-2.61-5.95-5.95-5.95c-3.11,0-6.1,2.74-5.95,5.95
			C136.37,141.86,138.84,144.59,142.18,144.59L142.18,144.59z"/>
	</g>
</g>
<g id="left_eye_2_">
	<path d="M145.86,133.35c0.4-1.41-0.74-4.08-1.47-5.29c-0.87-1.4-2.34-2.67-4.01-3.14c-3.61-1-6.83,0.4-7.9,4.15
		c-0.4,1.4-0.33,2.74-0.27,4.21c0.07,1.14-0.27,2.21-0.33,3.41c-0.2,3.28-0.86,5.04,0.88,7.85c1.14,1.87,2.81,2.07,4.75,1.47
		c1.74-0.47,4.08-0.74,5.28-2.27c1.2-1.4,1.08-1.63,1.88-3.37C145.54,138.37,145.86,135.56,145.86,133.35"/>
	<g>
		<path d="M151.6,134.93c0.79-3.5-0.38-7.49-2.42-10.39c-2.55-3.62-6.41-5.82-10.88-5.88c-4.01-0.06-7.58,1.9-9.86,5.14
			c-0.99,1.41-1.67,3.12-1.93,4.83c-0.18,1.16-0.31,2.31-0.29,3.48c0.02,0.9,0.07,1.77-0.04,2.67c0.07-0.53,0.14-1.05,0.21-1.58
			c-0.67,4.48-1.35,8.92,0.61,13.16c1.17,2.54,3.14,4.47,5.79,5.42c2.16,0.78,4.41,0.46,6.57-0.1c1.84-0.48,3.69-0.86,5.35-1.87
			c1.76-1.06,3.39-2.78,4.32-4.63c0.32-0.63,0.58-1.34,0.84-1.96c0.31-0.73-0.7,1.64-0.05,0.15c0.47-1.08,0.93-2.16,1.22-3.3
			c0.54-2.18,0.78-4.48,0.79-6.72c0.02-3.11-2.75-6.09-5.95-5.95c-3.24,0.15-5.93,2.61-5.95,5.95c-0.01,1.02-0.07,2.04-0.19,3.06
			c0.07-0.53,0.14-1.05,0.21-1.58c-0.1,0.7-0.21,1.39-0.38,2.08c-0.14,0.57-0.97,2.55-0.16,0.77c-0.29,0.63-0.58,1.32-0.83,1.95
			c-0.38,0.96,0.7-1.38,0.26-0.62c-0.11,0.19-0.64,0.87-0.62,1.05c0.2-0.26,0.39-0.51,0.59-0.77c-0.13,0.16-0.27,0.32-0.4,0.47
			c-0.07,0.07-0.14,0.14-0.2,0.2c0.84-0.61,1.01-0.75,0.51-0.42c-0.08,0.05-0.17,0.1-0.25,0.14c-0.55,0.27-0.35,0.18,0.61-0.24
			c-0.28,0.04-0.59,0.2-0.86,0.28c-1.1,0.31-2.26,0.64-3.39,0.82c0.53-0.07,1.05-0.14,1.58-0.21c-0.36,0.04-0.7,0.05-1.05,0.02
			c0.53,0.07,1.05,0.14,1.58,0.21c-0.16-0.02-0.33-0.07-0.49-0.09c-0.87-0.09,1.03,0.5,0.62,0.26c-0.54-0.31,1.04,0.91,0.58,0.44
			c-0.39-0.39,0.81,1.34,0.28,0.37c-0.11-0.2-0.23-0.41-0.35-0.61c-0.45-0.75,0.14,0.5,0.21,0.56c-0.24-0.21-0.3-1.04-0.35-1.35
			c0.07,0.53,0.14,1.05,0.21,1.58c-0.24-1.89,0.07-3.94,0.29-5.81c-0.07,0.53-0.14,1.05-0.21,1.58c0.2-1.4,0.49-2.8,0.47-4.21
			c-0.02-1.03-0.08-2.04,0.03-3.07c-0.07,0.53-0.14,1.05-0.21,1.58c0.07-0.44,0.15-0.86,0.28-1.28c0.36-1.19-0.48,0.78-0.18,0.34
			c0.06-0.09,0.37-0.84,0.48-0.82c-0.03,0-1.16,1.3-0.27,0.41c0.52-0.52,0.69-0.23-0.44,0.3c0.2-0.09,0.46-0.24,0.63-0.37
			c-1.16,0.87-1.16,0.43-0.5,0.24c0.33-0.1,0.66-0.15,0.99-0.2c-0.53,0.07-1.05,0.14-1.58,0.21c0.63-0.06,1.24-0.05,1.87,0.03
			c-0.53-0.07-1.05-0.14-1.58-0.21c0.38,0.06,0.75,0.16,1.13,0.24c0.59,0.2,0.42,0.11-0.5-0.26c0.2,0.09,0.39,0.2,0.58,0.31
			c0.19,0.11,0.37,0.24,0.55,0.37c-0.76-0.6-0.91-0.7-0.45-0.29c0.16,0.15,0.31,0.31,0.45,0.47c0.4,0.47,0.28,0.32-0.34-0.45
			c0.11,0.29,0.36,0.58,0.5,0.86c0.08,0.16,0.16,0.32,0.23,0.48c0.25,0.55,0.16,0.34-0.26-0.63c0.2,0.76,0.5,1.45,0.61,2.24
			c-0.07-0.53-0.14-1.05-0.21-1.58c0.03,0.33,0.04,0.64,0,0.97c0.07-0.53,0.14-1.05,0.21-1.58c-0.02,0.07-0.03,0.14-0.05,0.21
			c-0.68,3.03,0.92,6.58,4.16,7.32C147.3,139.78,150.87,138.18,151.6,134.93L151.6,134.93z"/>
	</g>
</g>
<g id="right_eye_1_">
	<path d="M187.85,143.25c1.81-1.27,2.81-2.14,3.68-4.21c0.8-1.81,0.81-3.34,1.08-5.28c0.2-1.81-0.32-4.41-1.39-5.95
		c-1-1.47-0.96-2.61-2.7-2.88c-3.21-0.53-4.18-0.53-6.72,1.81c-1.74,1.54-1.47,3.28-1.67,5.42c-0.2,2.14-0.13,3.88,0.2,5.95
		c0.33,1.81-0.46,4.08,1.22,5.22C183.01,144.19,186.15,144.73,187.85,143.25"/>
	<g>
		<path d="M190.85,148.39c1.91-1.35,3.48-2.64,4.83-4.55c1.13-1.6,1.93-3.6,2.28-5.52c0.35-1.92,0.77-4.13,0.61-6.1
			c-0.19-2.44-0.72-4.84-1.95-6.99c-1.08-1.88-2.07-3.65-3.9-4.94c-1.74-1.24-4.34-1.5-6.41-1.59c-2-0.09-4.11,0.46-5.81,1.53
			c-1.9,1.19-3.83,2.87-4.9,4.86c-1.22,2.27-1.25,4.74-1.45,7.24c-0.21,2.57,0.06,5.05,0.47,7.59c-0.07-0.53-0.14-1.05-0.21-1.58
			c0.19,1.65,0,3.24,0.36,4.9c0.59,2.68,2.51,4.74,4.98,5.79c1.7,0.72,3.48,1.15,5.35,1.11c1.04-0.02,2.12-0.15,3.12-0.46
			c1.59-0.49,2.56-1.17,3.84-2.2c1.11-0.9,1.74-2.85,1.74-4.21c0-1.46-0.65-3.2-1.74-4.21c-1.13-1.04-2.62-1.81-4.21-1.74
			c-1.67,0.07-2.91,0.7-4.21,1.74c-0.06,0.05-0.12,0.1-0.18,0.15c0.4-0.31,0.8-0.62,1.2-0.93c-0.26,0.18-0.52,0.32-0.81,0.45
			c0.47-0.2,0.95-0.4,1.42-0.6c-0.38,0.14-0.75,0.23-1.15,0.28c0.53-0.07,1.05-0.14,1.58-0.21c-0.57,0.06-1.13,0.05-1.7-0.02
			c0.53,0.07,1.05,0.14,1.58,0.21c-0.68-0.1-1.33-0.27-1.96-0.53c0.47,0.2,0.95,0.4,1.42,0.6c-0.25-0.12-0.48-0.24-0.7-0.41
			c0.4,0.31,0.8,0.62,1.2,0.93c-0.12-0.1-0.23-0.21-0.32-0.33c0.31,0.4,0.62,0.8,0.93,1.2c-0.13-0.19-0.23-0.36-0.33-0.56
			c0.2,0.47,0.4,0.95,0.6,1.42c-0.1-0.28-0.17-0.56-0.22-0.86c0.07,0.53,0.14,1.05,0.21,1.58c-0.08-0.67-0.05-1.35-0.05-2.02
			c-0.01-1.2-0.24-2.38-0.41-3.56c0.07,0.53,0.14,1.05,0.21,1.58c-0.34-2.59-0.23-5.27,0.1-7.85c-0.07,0.53-0.14,1.05-0.21,1.58
			c0.08-0.48,0.19-0.92,0.37-1.37c-0.2,0.47-0.4,0.95-0.6,1.42c0.15-0.31,0.31-0.58,0.52-0.85c-0.31,0.4-0.62,0.8-0.93,1.2
			c0.48-0.57,1.06-1.06,1.64-1.52c-0.4,0.31-0.8,0.62-1.2,0.93c0.45-0.34,0.92-0.65,1.45-0.88c-0.47,0.2-0.95,0.4-1.42,0.6
			c0.34-0.13,0.69-0.22,1.05-0.27c-0.53,0.07-1.05,0.14-1.58,0.21c0.7-0.07,1.4-0.01,2.09,0.09c-0.53-0.07-1.05-0.14-1.58-0.21
			c0.6,0.09,1.21,0.15,1.78,0.36c-0.47-0.2-0.95-0.4-1.42-0.6c0.19,0.09,0.34,0.18,0.5,0.31c-0.4-0.31-0.8-0.62-1.2-0.93
			c0.09,0.08,0.18,0.17,0.26,0.26c-0.31-0.4-0.62-0.8-0.93-1.2c0.34,0.45,0.56,0.96,0.83,1.45c0.34,0.61,0.74,1.17,1.03,1.81
			c-0.2-0.47-0.4-0.95-0.6-1.42c0.36,0.88,0.59,1.78,0.73,2.72c-0.07-0.53-0.14-1.05-0.21-1.58c0.17,1.43-0.03,2.8-0.21,4.22
			c0.07-0.53,0.14-1.05,0.21-1.58c-0.14,0.99-0.34,1.93-0.7,2.87c0.2-0.47,0.4-0.95,0.6-1.42c-0.34,0.81-0.72,1.57-1.25,2.28
			c0.31-0.4,0.62-0.8,0.93-1.2c-0.49,0.61-1.06,1.12-1.68,1.6c0.4-0.31,0.8-0.62,1.2-0.93c-0.29,0.22-0.58,0.43-0.87,0.63
			c-1.29,0.91-2.3,1.98-2.74,3.56c-0.39,1.42-0.22,3.32,0.6,4.59C184.33,148.77,188.14,150.31,190.85,148.39L190.85,148.39z"/>
	</g>
</g>
<g id="left_pupil">
	<g>
		<path class="st4" d="M131.79,132.22c0.53,1.46,0.99,3.03,1.89,4.32c0.16,0.12,0.31,0.24,0.47,0.36c0.32,0.17,0.67,0.27,1.03,0.3
			c0.72,0.1,1.5,0.06,2.2-0.15c0.58-0.17,1.15-0.41,1.67-0.73c0.34-0.19,0.61-0.44,0.84-0.75c0.23-0.22,0.38-0.5,0.44-0.81
			c-0.01-2.12-0.43-4.2-0.88-6.27c-0.09-0.16-0.17-0.32-0.26-0.47c-0.22-0.24-0.48-0.4-0.79-0.48c-0.62-0.23-1.32-0.29-1.98-0.2
			c-1.43,0.19-2.91,0.68-3.97,1.7c-0.41,0.39-0.67,0.82-0.83,1.36c-0.09,0.3-0.06,0.64-0.04,0.94c0.05,0.72,0.41,1.39,0.74,2.02
			c0.08,0.29,0.24,0.51,0.49,0.66c0.25,0.23,0.54,0.37,0.88,0.42c0.79,0.21,1.82,0.13,2.59-0.09c0.81-0.24,1.7-0.58,2.29-1.21
			c0.15-0.18,0.29-0.35,0.44-0.53c0.22-0.34,0.29-0.7,0.21-1.09c-0.33-0.63-0.72-1.32-0.75-2.05c0,0.18,0.01,0.36,0.01,0.54
			c0-0.15,0.02-0.3,0.08-0.44c-0.08,0.18-0.15,0.37-0.23,0.55c0.03-0.06,0.06-0.11,0.1-0.16c-0.15,0.18-0.29,0.35-0.44,0.53
			c0.04-0.05,0.09-0.1,0.14-0.14c-0.21,0.16-0.41,0.32-0.62,0.49c0.05-0.03,0.09-0.06,0.14-0.09c-0.26,0.14-0.51,0.28-0.77,0.41
			c0.06-0.03,0.11-0.05,0.17-0.07c-0.3,0.1-0.6,0.21-0.9,0.31c0.07-0.02,0.13-0.04,0.2-0.05c-0.31,0.06-0.62,0.12-0.94,0.18
			c0.05-0.01,0.1-0.02,0.15-0.02c-1.01-0.39-2.02-0.78-3.03-1.16c0.39,1.81,0.81,3.65,0.86,5.5c0-0.18-0.01-0.36-0.01-0.54
			c0,0.07,0,0.15,0,0.22c2.22-0.59,4.43-1.19,6.65-1.78c-0.1-0.14-0.18-0.28-0.26-0.43c0.09,0.16,0.17,0.32,0.26,0.47
			c-0.58-1.08-0.94-2.26-1.36-3.41c-0.22-0.61-0.77-0.92-1.37-1.08c-0.79-0.21-1.82-0.13-2.59,0.09c-0.81,0.24-1.7,0.58-2.29,1.21
			C132.06,131.01,131.57,131.62,131.79,132.22L131.79,132.22z"/>
	</g>
</g>
<g id="right_pupil">
	<g>
		<path class="st4" d="M178.11,129.29c0,2.1,0,4.24,0.61,6.27c0.13,0.44,0.89,0.51,1.23,0.54c0.81,0.06,1.75-0.1,2.53-0.32
			c0.8-0.23,1.66-0.5,2.35-0.99c0.3-0.22,0.93-0.62,0.79-1.08c-0.61-2.03-0.61-4.17-0.61-6.27c0-0.43-1.04-0.52-1.23-0.54
			c-0.81-0.06-1.75,0.1-2.53,0.32c-0.8,0.23-1.66,0.5-2.35,0.99C178.52,128.49,178.11,128.77,178.11,129.29L178.11,129.29z"/>
	</g>
</g>
</svg>
