<?xml version="1.0" encoding="UTF-8" standalone="no"?>
<svg
   xmlns:dc="http://purl.org/dc/elements/1.1/"
   xmlns:cc="http://creativecommons.org/ns#"
   xmlns:rdf="http://www.w3.org/1999/02/22-rdf-syntax-ns#"
   xmlns:svg="http://www.w3.org/2000/svg"
   xmlns="http://www.w3.org/2000/svg"
   viewBox="0 0 2666.6667 795.25598"
   height="795.25598"
   width="2666.6667"
   xml:space="preserve"
   id="svg2"
   version="1.1"><metadata
     id="metadata8"><rdf:RDF><cc:Work
         rdf:about=""><dc:format>image/svg+xml</dc:format><dc:type
           rdf:resource="http://purl.org/dc/dcmitype/StillImage" /></cc:Work></rdf:RDF></metadata><defs
     id="defs6"><clipPath
       id="clipPath18"
       clipPathUnits="userSpaceOnUse"><path
         id="path16"
         d="M 0,596.442 H 2000 V 0 H 0 Z" /></clipPath></defs><g
     transform="matrix(1.3333333,0,0,-1.3333333,0,795.256)"
     id="g10"><g
       id="g12"><g
         clip-path="url(#clipPath18)"
         id="g14"><g
           transform="translate(211.9785,348.6841)"
           id="g20"><path
             id="path22"
             style="fill:#ededed;fill-opacity:1;fill-rule:nonzero;stroke:none"
             d="m 0,0 c -48.788,-14.259 -102.452,-28.518 -151.238,-39.928 21.954,-32.798 104.891,-64.17 112.208,-96.967 7.317,-21.39 -29.272,-62.746 -46.346,-81.282 -14.636,-18.539 -24.393,-38.502 -39.029,-55.614 119.527,-9.982 278.082,4.277 382.972,37.075" /></g><g
           transform="translate(209.6523,357.1225)"
           id="g24"><path
             id="path26"
             style="fill:#3c3c3b;fill-opacity:1;fill-rule:nonzero;stroke:none"
             d="m 0,0 c -39.227,-11.459 -78.684,-22.145 -118.346,-31.992 -10.946,-2.717 -21.91,-5.365 -32.892,-7.936 -5.261,-1.231 -8.334,-8.258 -5.23,-12.855 5.031,-7.452 11.478,-13.726 18.405,-19.402 8.261,-6.77 17.026,-12.897 25.905,-18.82 8.988,-5.996 18.104,-11.797 27.076,-17.817 4.287,-2.876 8.54,-5.802 12.715,-8.838 0.938,-0.682 1.872,-1.37 2.801,-2.065 0.458,-0.342 0.915,-0.686 1.37,-1.032 0.258,-0.197 0.516,-0.394 0.774,-0.591 1.197,-0.909 -1.264,1.001 -0.434,0.336 1.831,-1.468 3.674,-2.915 5.463,-4.433 3.285,-2.785 6.458,-5.716 9.369,-8.892 0.669,-0.729 1.323,-1.472 1.96,-2.229 0.289,-0.345 0.569,-0.696 0.856,-1.042 1.098,-1.332 -1.221,1.662 -0.213,0.282 1.057,-1.449 2.071,-2.92 2.964,-4.477 0.42,-0.734 0.816,-1.482 1.182,-2.244 0.178,-0.371 0.784,-1.798 0.1,-0.153 -0.676,1.625 -0.058,0.118 0.097,-0.304 0.55,-1.495 0.981,-3.062 1.357,-4.607 0.094,-0.386 0.145,-0.784 0.242,-1.168 0.319,-1.25 -0.282,1.399 -0.164,1.3 0.05,-0.042 0.07,-0.701 0.07,-0.698 0.042,-0.904 0.088,-1.798 0.056,-2.703 -0.016,-0.436 -0.043,-0.871 -0.08,-1.306 -0.09,-1.061 -0.718,-1.96 0.087,0.415 -0.311,-0.917 -0.352,-2.012 -0.576,-2.961 -0.517,-2.186 -1.209,-4.327 -2.011,-6.423 -0.192,-0.502 -0.404,-0.996 -0.594,-1.499 -0.332,-0.877 0.486,1.125 0.429,1.012 -0.142,-0.277 -0.253,-0.583 -0.38,-0.869 -0.526,-1.184 -1.082,-2.355 -1.662,-3.513 -2.336,-4.674 -5.041,-9.16 -7.922,-13.517 -1.515,-2.292 -3.083,-4.548 -4.691,-6.775 -0.756,-1.049 -1.521,-2.09 -2.294,-3.126 -0.387,-0.517 -0.775,-1.034 -1.166,-1.549 -0.335,-0.442 -2.118,-2.687 -0.481,-0.641 -3.351,-4.19 -6.688,-8.38 -10.173,-12.462 -3.083,-3.611 -6.229,-7.168 -9.417,-10.687 -4.357,-4.808 -8.304,-9.87 -12.042,-15.182 -8.562,-12.167 -16.007,-25.091 -24.824,-37.082 -0.509,-0.692 -1.023,-1.38 -1.541,-2.065 -0.153,-0.202 -1.104,-1.436 -0.436,-0.577 0.618,0.795 -0.14,-0.175 -0.222,-0.278 -1.229,-1.545 -2.475,-3.073 -3.754,-4.576 -2.334,-2.745 -3.265,-6.11 -1.809,-9.56 1.425,-3.377 4.428,-5.083 7.997,-5.379 24.588,-2.044 49.261,-2.983 73.931,-3.118 26.256,-0.144 52.518,0.626 78.728,2.191 26.52,1.584 52.995,3.983 79.362,7.245 25.865,3.201 51.644,7.146 77.22,12.17 22.978,4.514 45.815,9.864 68.269,16.527 2.602,0.772 5.198,1.564 7.789,2.372 4.364,1.362 7.602,6.162 6.112,10.765 -1.419,4.388 -6.085,7.573 -10.765,6.112 -21.917,-6.841 -44.236,-12.351 -66.712,-17.012 -12.224,-2.535 -24.501,-4.814 -36.814,-6.872 -6.219,-1.04 -12.446,-2.023 -18.681,-2.954 -3.207,-0.478 -6.415,-0.943 -9.626,-1.394 -1.557,-0.219 -3.114,-0.434 -4.672,-0.646 -0.446,-0.061 -0.893,-0.121 -1.338,-0.182 -1.02,-0.139 0.603,0.081 0.651,0.088 -0.892,-0.127 -1.788,-0.238 -2.682,-0.356 -26.184,-3.437 -52.482,-6.006 -78.83,-7.772 -26.189,-1.755 -52.434,-2.718 -78.682,-2.792 -24.824,-0.071 -49.661,0.646 -74.423,2.441 -2.947,0.214 -5.892,0.444 -8.837,0.689 2.063,-4.98 4.126,-9.959 6.188,-14.939 10.098,11.87 18.241,25.108 26.752,38.112 2.136,3.263 4.304,6.504 6.543,9.697 1.098,1.565 2.213,3.119 3.349,4.656 0.534,0.724 1.073,1.444 1.617,2.16 0.234,0.308 0.467,0.616 0.704,0.922 -1.002,-1.296 0.101,0.094 0.318,0.343 2.848,3.265 5.845,6.405 8.708,9.66 7.588,8.629 14.888,17.545 21.581,26.89 6.445,9.002 12.25,18.492 16.18,28.881 3.245,8.581 4.128,17.545 1.252,26.344 -2.715,8.301 -8.21,15.363 -14.327,21.463 -7.164,7.143 -15.366,13.267 -23.607,19.1 -8.872,6.279 -18.016,12.163 -27.113,18.108 -8.891,5.811 -17.779,11.652 -26.295,18.006 -0.918,0.684 -1.818,1.394 -2.739,2.074 2.226,-1.641 0.343,-0.262 -0.133,0.114 -0.499,0.393 -0.995,0.789 -1.489,1.187 -1.855,1.495 -3.681,3.027 -5.461,4.608 -3.197,2.84 -6.267,5.841 -9.029,9.109 -0.292,0.347 -0.581,0.697 -0.866,1.049 -0.98,1.214 -0.201,0.366 0.309,-0.42 -0.534,0.822 -1.169,1.59 -1.718,2.405 -1.744,-4.285 -3.487,-8.571 -5.23,-12.856 39.668,9.284 79.111,19.545 118.345,30.522 10.982,3.073 21.947,6.208 32.893,9.406 4.39,1.283 7.583,6.219 6.112,10.765 C 9.323,-1.657 4.707,1.375 0,0" /></g><g
           transform="translate(1799.9736,347.2851)"
           id="g28"><path
             id="path30"
             style="fill:#ededed;fill-opacity:1;fill-rule:nonzero;stroke:none"
             d="m 0,0 c 48.783,-14.261 102.449,-28.52 151.235,-39.928 -21.954,-32.797 -104.892,-64.169 -112.213,-96.967 -7.317,-21.39 29.275,-62.745 46.35,-81.282 14.638,-18.539 24.395,-38.502 39.032,-55.615 -119.527,-9.983 -278.082,4.278 -382.974,37.076" /></g><g
           transform="translate(1797.6475,338.8466)"
           id="g32"><path
             id="path34"
             style="fill:#3c3c3b;fill-opacity:1;fill-rule:nonzero;stroke:none"
             d="m 0,0 c 39.225,-11.461 78.682,-22.147 118.343,-31.993 10.946,-2.717 21.91,-5.365 32.892,-7.935 l -5.229,12.855 c -0.517,-0.765 -1.085,-1.493 -1.607,-2.254 -0.496,-0.726 0.933,1.165 0.793,1.02 -0.171,-0.177 -0.317,-0.406 -0.475,-0.6 -0.369,-0.451 -0.738,-0.904 -1.115,-1.349 -1.32,-1.552 -2.71,-3.043 -4.149,-4.486 -3.218,-3.229 -6.665,-6.222 -10.213,-9.08 -0.494,-0.399 -0.991,-0.794 -1.49,-1.187 -0.275,-0.218 -1.868,-1.451 -0.635,-0.502 1.237,0.95 -0.382,-0.289 -0.661,-0.502 -0.59,-0.447 -1.181,-0.891 -1.774,-1.333 -2.092,-1.558 -4.209,-3.083 -6.341,-4.585 -4.293,-3.024 -8.65,-5.956 -13.028,-8.853 -17.88,-11.829 -36.578,-22.944 -52.7,-37.183 -6.324,-5.586 -12.561,-12.042 -16.432,-19.621 -4.272,-8.36 -5.492,-17.25 -3.325,-26.421 2.394,-10.133 7.8,-19.666 13.458,-28.308 6.421,-9.811 13.736,-19.059 21.322,-27.991 3.11,-3.661 6.286,-7.267 9.506,-10.831 1.405,-1.555 2.873,-3.064 4.243,-4.65 0.215,-0.248 0.974,-1.21 0.399,-0.477 -0.587,0.748 0.202,-0.263 0.262,-0.342 0.622,-0.819 1.24,-1.64 1.852,-2.467 1.211,-1.64 2.398,-3.298 3.567,-4.968 8.663,-12.385 16.213,-25.528 25.266,-37.643 2.51,-3.358 5.096,-6.662 7.813,-9.856 2.062,4.98 4.126,9.959 6.188,14.939 -24.477,-2.035 -49.04,-2.975 -73.598,-3.116 -26.138,-0.15 -52.28,0.606 -78.373,2.149 -26.411,1.563 -52.778,3.936 -79.037,7.162 -3.256,0.4 -6.511,0.813 -9.764,1.241 -0.783,0.102 -1.565,0.207 -2.348,0.31 -1.021,0.134 0.604,-0.084 0.652,-0.088 -0.442,0.032 -0.897,0.121 -1.338,0.181 -1.67,0.227 -3.339,0.458 -5.008,0.692 -6.398,0.899 -12.789,1.852 -19.172,2.862 -12.344,1.954 -24.654,4.12 -36.917,6.533 -22.871,4.501 -45.603,9.832 -67.955,16.465 -2.602,0.772 -5.199,1.564 -7.79,2.373 -4.37,1.364 -9.739,-1.612 -10.765,-6.113 -1.083,-4.755 1.432,-9.304 6.113,-10.764 22.017,-6.872 44.441,-12.402 67.021,-17.077 25.436,-5.266 51.087,-9.394 76.836,-12.789 26.291,-3.466 52.698,-6.057 79.157,-7.837 26.192,-1.763 52.441,-2.733 78.692,-2.815 24.935,-0.078 49.885,0.636 74.758,2.44 2.946,0.213 5.892,0.444 8.836,0.689 3.563,0.296 6.555,1.961 7.998,5.379 1.437,3.406 0.527,6.813 -1.81,9.56 -1.198,1.409 -2.376,2.836 -3.524,4.287 -0.23,0.289 -0.456,0.581 -0.685,0.87 1.044,-1.319 0.225,-0.293 0.02,-0.019 -0.589,0.785 -1.182,1.568 -1.764,2.359 -2.18,2.963 -4.276,5.989 -6.324,9.044 -4.134,6.165 -8.078,12.453 -12.152,18.657 -4.449,6.778 -9.065,13.462 -14.123,19.806 -2.728,3.423 -5.908,6.544 -8.807,9.828 -3.446,3.901 -6.828,7.857 -10.121,11.887 -0.8,0.981 -1.596,1.966 -2.386,2.956 -0.399,0.499 -0.795,1 -1.191,1.502 -0.227,0.288 -0.453,0.576 -0.679,0.865 -0.189,0.241 -1.197,1.542 -0.33,0.421 0.821,-1.064 -0.42,0.551 -0.662,0.869 -0.39,0.514 -0.78,1.03 -1.167,1.547 -0.884,1.183 -1.759,2.373 -2.622,3.572 -3.164,4.395 -6.179,8.902 -8.918,13.576 -1.287,2.197 -2.511,4.432 -3.644,6.713 -0.505,1.015 -0.991,2.039 -1.454,3.074 -0.13,0.289 -0.25,0.583 -0.384,0.87 -0.4,0.857 0.463,-1.127 0.424,-1.01 -0.223,0.65 -0.521,1.283 -0.764,1.926 -0.767,2.028 -1.432,4.099 -1.931,6.21 -0.228,0.97 -0.305,2.008 -0.576,2.961 -0.052,0.188 0.232,-2.257 0.185,-1.364 -0.014,0.254 -0.058,0.507 -0.081,0.76 -0.045,0.498 -0.078,0.996 -0.097,1.495 -0.032,0.905 0.003,1.801 0.057,2.704 0.103,1.761 -0.24,-1.291 -0.123,-0.772 0.099,0.444 0.163,0.895 0.27,1.338 0.376,1.545 0.808,3.112 1.357,4.607 0.13,0.351 0.291,0.695 0.411,1.049 -0.969,-2.866 -0.563,-1.323 -0.213,-0.592 0.365,0.763 0.762,1.51 1.183,2.244 0.892,1.558 1.909,3.027 2.964,4.477 1.075,1.477 -1.2,-1.469 -0.333,-0.431 0.329,0.394 0.646,0.798 0.976,1.191 0.637,0.758 1.292,1.5 1.96,2.23 1.41,1.538 2.884,3.017 4.398,4.451 3.389,3.206 7.048,6.039 10.624,9.021 0.083,0.07 -1.569,-1.199 -0.815,-0.63 0.259,0.195 0.515,0.394 0.772,0.59 0.455,0.346 0.911,0.69 1.368,1.033 1.06,0.795 2.128,1.58 3.2,2.359 2.063,1.498 4.146,2.969 6.242,4.421 8.764,6.07 17.743,11.82 26.657,17.666 8.668,5.684 17.315,11.432 25.561,17.719 7.472,5.696 14.927,11.661 20.928,18.947 1.585,1.924 3.118,3.908 4.513,5.976 3.105,4.597 0.03,11.624 -5.229,12.855 C 116.219,-13.768 76.776,-3.508 37.544,7.47 26.562,10.543 15.599,13.679 4.653,16.877 0.261,18.16 -5.073,15.323 -6.112,10.765 -7.179,6.08 -4.704,1.374 0,0" /></g><g
           transform="translate(294.9678,162.205)"
           id="g36"><path
             id="path38"
             style="fill:#9d9d9c;fill-opacity:1;fill-rule:nonzero;stroke:none"
             d="m 0,0 c 30.573,0.119 49.11,7.49 75.865,12.871 15.555,3.127 32.371,2.831 48.541,4.209 27.277,2.323 84.383,18.691 102.698,0.065 15.908,-16.184 -6.592,-55.819 -12.499,-73.087 -36.59,4.278 -82.936,22.817 -121.963,31.372 -31.713,7.13 -68.302,11.408 -97.574,21.392" /></g><g
           transform="translate(294.9678,153.4541)"
           id="g40"><path
             id="path42"
             style="fill:#3c3c3b;fill-opacity:1;fill-rule:nonzero;stroke:none"
             d="m 0,0 c 12.159,0.062 24.278,1.372 36.216,3.66 10.138,1.944 20.12,4.591 30.167,6.939 6.488,1.516 12.999,2.979 19.605,3.876 -0.775,-0.104 -1.551,-0.208 -2.326,-0.312 14.137,1.873 28.43,1.643 42.601,3.091 9.57,0.978 19.059,2.699 28.546,4.26 5.808,0.955 11.622,1.879 17.456,2.667 -0.776,-0.104 -1.552,-0.208 -2.327,-0.312 12.456,1.672 25.32,3.035 37.851,1.369 -0.776,0.104 -1.551,0.208 -2.327,0.312 3.916,-0.537 7.799,-1.408 11.456,-2.936 -0.697,0.295 -1.394,0.589 -2.091,0.883 2.036,-0.869 3.971,-1.937 5.734,-3.279 l -1.771,1.368 c 1.269,-0.986 2.422,-2.095 3.422,-3.355 l -1.368,1.771 c 0.991,-1.284 1.797,-2.679 2.436,-4.17 l -0.882,2.09 c 0.802,-1.939 1.302,-3.968 1.586,-6.045 -0.105,0.776 -0.209,1.551 -0.313,2.327 0.446,-3.497 0.29,-7.027 -0.163,-10.515 0.105,0.776 0.209,1.551 0.313,2.327 -1.65,-12.221 -6.509,-23.867 -11.266,-35.149 l 0.882,2.09 c -2.491,-5.902 -5.185,-11.759 -7.27,-17.822 2.812,2.142 5.625,4.283 8.438,6.425 -0.983,0.116 -1.966,0.24 -2.947,0.372 0.775,-0.104 1.55,-0.208 2.326,-0.312 -13.602,1.856 -26.971,5.178 -40.188,8.833 -14.271,3.946 -28.406,8.362 -42.607,12.549 -13.713,4.044 -27.49,7.794 -41.479,10.766 -14.754,3.134 -29.631,5.643 -44.444,8.477 -14.46,2.767 -28.927,5.78 -42.993,10.174 -1.632,0.511 -3.258,1.042 -4.878,1.592 -4.338,1.475 -9.758,-1.69 -10.765,-6.112 -1.105,-4.852 1.467,-9.186 6.112,-10.765 14.017,-4.763 28.518,-7.969 43.027,-10.826 15.131,-2.979 30.347,-5.52 45.455,-8.618 14.225,-2.916 28.241,-6.575 42.177,-10.644 14.5,-4.234 28.915,-8.758 43.46,-12.835 13.478,-3.777 27.111,-7.262 40.981,-9.26 2.251,-0.325 4.505,-0.627 6.763,-0.893 0.776,0.104 1.551,0.208 2.327,0.312 1.139,0.271 2.13,0.793 2.976,1.567 1.566,1.209 2.485,2.653 3.136,4.545 1.149,3.343 2.529,6.604 3.901,9.86 -0.294,-0.697 -0.588,-1.394 -0.882,-2.091 4.777,11.316 9.892,22.624 12.939,34.562 1.504,5.893 2.618,12.117 2.424,18.217 -0.187,5.928 -1.512,12.319 -5.032,17.223 -3.556,4.954 -8.189,8.438 -13.778,10.797 -5.522,2.331 -11.252,3.372 -17.205,3.969 -11.733,1.176 -23.668,-0.069 -35.306,-1.625 -12.418,-1.661 -24.734,-3.936 -37.124,-5.78 -1.261,-0.187 -2.523,-0.367 -3.786,-0.538 0.776,0.104 1.552,0.208 2.327,0.312 -14.403,-1.933 -28.991,-1.664 -43.433,-3.194 -15.194,-1.61 -29.875,-5.661 -44.714,-9.12 -7.532,-1.755 -15.111,-3.297 -22.778,-4.332 0.776,0.104 1.551,0.208 2.326,0.313 C 15.32,18.046 7.669,17.542 0,17.502 -4.577,17.479 -8.964,13.494 -8.751,8.751 -8.54,4.03 -4.906,-0.025 0,0" /></g><g
           transform="translate(1721.9678,169.3349)"
           id="g44"><path
             id="path46"
             style="fill:#9d9d9c;fill-opacity:1;fill-rule:nonzero;stroke:none"
             d="m 0,0 c -29.435,0.059 -55.349,3.251 -84.182,6.061 -28.425,2.775 -98.731,29.658 -112.852,9.481 -11.738,-16.774 3.901,-56.329 14.026,-72.909 39.035,11.409 65.867,28.52 107.336,38.504 36.588,7.128 65.863,19.962 100.012,31.371" /></g><g
           transform="translate(1721.9678,178.0859)"
           id="g48"><path
             id="path50"
             style="fill:#3c3c3b;fill-opacity:1;fill-rule:nonzero;stroke:none"
             d="m 0,0 c -23.521,0.061 -46.916,2.305 -70.294,4.672 -5.477,0.555 -10.985,0.965 -16.442,1.686 0.775,-0.104 1.55,-0.208 2.326,-0.312 -12.206,1.643 -24.194,4.988 -36.149,7.866 -14.303,3.442 -28.677,6.741 -43.32,8.376 -5.753,0.642 -11.607,1.006 -17.382,0.435 -5.735,-0.568 -11.784,-1.671 -16.664,-4.959 -13.462,-9.072 -13.121,-27.201 -10.592,-41.467 1.352,-7.62 3.624,-15.074 6.366,-22.302 2.714,-7.158 5.807,-14.227 9.506,-20.936 0.668,-1.212 1.361,-2.411 2.081,-3.594 1.99,-3.269 6.128,-5.122 9.882,-4.021 26.228,7.688 50.747,19.786 76.38,29.096 6.665,2.421 13.406,4.639 20.226,6.585 3.55,1.013 7.124,2.03 10.73,2.822 3.844,0.845 7.707,1.581 11.54,2.483 14.261,3.354 28.246,7.738 42.083,12.527 15.496,5.362 30.838,11.16 46.389,16.361 2.161,0.723 4.058,2.018 5.23,4.022 1.098,1.876 1.563,4.64 0.882,6.743 -1.395,4.313 -6.116,7.667 -10.764,6.112 -27.821,-9.305 -55.035,-20.506 -83.532,-27.684 -7.426,-1.871 -14.971,-3.214 -22.372,-5.177 -6.974,-1.85 -13.871,-3.989 -20.685,-6.359 -12.638,-4.397 -24.959,-9.612 -37.312,-14.739 -14.258,-5.918 -28.621,-11.569 -43.448,-15.915 3.295,-1.341 6.589,-2.681 9.883,-4.022 -3.282,5.393 -6.032,11.111 -8.492,16.919 l 0.882,-2.091 c -4.203,9.978 -7.627,20.449 -9.108,31.203 0.105,-0.775 0.209,-1.551 0.313,-2.326 -0.622,4.662 -0.865,9.401 -0.256,14.078 -0.105,-0.775 -0.209,-1.551 -0.313,-2.326 0.334,2.428 0.905,4.811 1.845,7.079 -0.294,-0.697 -0.588,-1.394 -0.883,-2.09 0.629,1.47 1.397,2.885 2.374,4.154 l -1.368,-1.771 c 0.682,0.86 1.459,1.624 2.322,2.302 -0.591,-0.456 -1.18,-0.912 -1.771,-1.368 1.199,0.919 2.516,1.647 3.906,2.237 -0.697,-0.294 -1.394,-0.588 -2.091,-0.882 2.402,0.996 4.944,1.569 7.512,1.924 -0.775,-0.104 -1.551,-0.209 -2.326,-0.313 7.426,0.989 15.03,0.323 22.42,-0.66 -0.776,0.104 -1.551,0.208 -2.327,0.312 17.89,-2.409 35.368,-7.199 52.909,-11.329 7.868,-1.852 15.75,-3.564 23.775,-4.574 6.043,-0.76 12.135,-1.233 18.194,-1.846 6.837,-0.691 13.674,-1.376 20.517,-1.991 15.771,-1.415 31.579,-2.401 47.418,-2.442 4.577,-0.012 8.962,4.034 8.751,8.751 C 8.538,-4 4.906,-0.013 0,0" /></g><g
           transform="translate(777.8965,520.517)"
           id="g52"><path
             id="path54"
             style="fill:#ededed;fill-opacity:1;fill-rule:nonzero;stroke:none"
             d="m 0,0 c 248.812,-4.277 501.279,4.278 750.09,-4.277 69.519,-2.139 168.315,-6.417 230.515,-25.668 73.177,-21.39 73.177,-40.641 54.886,-85.559 -18.298,-51.337 -43.908,-104.813 -51.229,-156.147 -3.657,-17.114 3.66,-34.225 -7.317,-51.337 -10.977,-29.946 -3.66,-25.669 -58.54,-23.53 -91.474,4.279 -175.633,27.807 -270.764,29.945 -98.796,2.14 -190.271,4.281 -289.06,8.557 -135.382,8.557 -270.765,-4.276 -402.488,-17.111 -80.497,-8.557 -164.653,-4.279 -248.811,-10.696 -62.202,-4.277 -117.086,-17.111 -175.632,-23.528 -91.472,-10.694 -73.177,62.031 -73.177,102.672 0,44.855 -15.568,91.302 -32.19,134.918 -10.101,26.51 -42.545,58.445 -6.223,82.333 35.827,23.562 113.672,15.367 162.564,18.158 C -278.394,-13.332 -140.125,1.463 0,0" /></g><g
           transform="translate(777.8965,511.7661)"
           id="g56"><path
             id="path58"
             style="fill:#3c3c3b;fill-opacity:1;fill-rule:nonzero;stroke:none"
             d="m 0,0 c 142.603,-2.42 285.226,-0.704 427.837,-0.351 134.778,0.333 270.19,1.078 404.754,-7.609 55.388,-3.576 111.74,-8.995 164.377,-27.655 13.383,-4.745 34.333,-11.861 38.993,-26.92 4.226,-13.655 -4.605,-30.461 -9.401,-43.268 -11.678,-31.178 -24.517,-61.996 -35.193,-93.538 -5.262,-15.548 -9.925,-31.332 -13.164,-47.434 -1.425,-7.085 -2.824,-14.331 -3.516,-21.53 -0.735,-7.644 0.101,-15.311 -0.135,-22.966 -0.348,-11.31 -6.254,-21.552 -10.077,-32.084 -1.103,-3.035 -0.967,-3.356 -2.499,-5.656 -0.601,-0.903 -0.964,-0.807 -0.495,-0.703 -4.968,-1.095 -11.75,-0.801 -18.344,-0.485 -13.747,0.657 -27.513,1.186 -41.241,2.163 -66.763,4.752 -132.386,18.94 -198.951,25.5 -34.299,3.381 -68.68,3.74 -103.108,4.521 -35.348,0.803 -70.693,1.667 -106.036,2.686 -70.632,2.038 -141.301,6.867 -211.947,7.519 -71.089,0.656 -142.129,-3.495 -212.946,-9.388 -69.705,-5.801 -139.07,-14.206 -209.047,-15.993 -70.212,-1.793 -140.385,-1.711 -210.104,-11.321 -32.924,-4.538 -65.626,-10.566 -98.57,-14.959 -21.095,-2.813 -47.727,-8.387 -67.232,3.431 -24.694,14.962 -18.154,53.488 -17.033,77.454 1.303,27.838 -3.093,55.541 -10.267,82.386 -7.806,29.207 -17.284,59.344 -31.86,85.936 -5.292,9.654 -12.216,20.334 -12.743,31.66 -0.566,12.174 10.047,19.92 20.021,24.621 21.016,9.904 46.323,10.854 69.127,11.599 25.825,0.843 51.69,-0.243 77.505,0.915 34.192,1.534 68.363,4.248 102.5,6.68 71.025,5.06 142.045,10.486 213.212,13.169 C -70.405,-0.294 -35.204,0.336 0,0 11.266,-0.108 11.275,17.394 0,17.502 -74.032,18.21 -147.995,14.489 -221.84,9.554 -258.406,7.11 -294.952,4.388 -331.509,1.811 c -33.984,-2.394 -68.114,-5.545 -102.186,-6.145 -27.205,-0.479 -54.45,0.508 -81.619,-1.362 -22.946,-1.58 -48.455,-4.323 -68.325,-16.968 -11.005,-7.003 -19.912,-17.083 -21.511,-30.406 -1.378,-11.48 2.848,-22.561 7.775,-32.716 5.52,-11.378 12.359,-21.954 16.841,-33.827 6.334,-16.78 12.355,-33.693 17.413,-50.907 8.365,-28.468 13.911,-57.679 12.57,-87.447 -0.689,-15.296 -2.137,-30.667 -0.407,-45.947 1.766,-15.587 6.666,-31.482 18.976,-42.037 15.738,-13.495 37.617,-15.589 57.517,-14.001 33.275,2.656 66.337,9.023 99.286,14.171 35.87,5.605 71.761,9.664 108.024,11.603 72.835,3.893 146.006,1.297 218.658,8.578 72.788,7.295 145.687,14.163 218.762,17.805 36.632,1.825 73.313,2.795 109.991,2.496 36.814,-0.3 73.524,-2.59 110.299,-4.038 72.372,-2.852 144.776,-4.733 217.184,-6.358 35.867,-0.805 71.541,-1.639 107.233,-5.605 34.672,-3.852 69.092,-9.572 103.604,-14.595 34.039,-4.953 68.183,-9.204 102.567,-10.733 10.783,-0.479 21.612,-1.431 32.41,-1.412 5.913,0.01 12.209,0.385 17.326,3.665 5.188,3.327 7.632,8.856 9.751,14.396 3.685,9.634 9.033,19.46 10.601,29.626 1.162,7.525 0.742,15.016 0.661,22.591 -0.091,8.455 1.3,16.669 2.919,24.95 3.238,16.583 8.022,32.827 13.434,48.818 10.916,32.257 23.786,63.976 36.024,95.751 5.843,15.172 12.74,31.681 9.107,48.252 -3.752,17.115 -19.617,27.595 -34.548,34.364 -24.127,10.936 -50.402,17.734 -76.373,22.594 C 884.428,7.827 824.968,10.68 766.08,12.707 694.385,15.174 622.669,16.533 550.933,16.983 403.355,17.911 255.78,15.655 108.203,16.361 72.133,16.533 36.065,16.89 0,17.502 -11.267,17.693 -11.269,0.191 0,0" /></g><g
           transform="translate(485.0112,355.4687)"
           id="g60"><path
             id="path62"
             style="fill:#1d1d1b;fill-opacity:1;fill-rule:nonzero;stroke:none"
             d="m 0,0 c 2.423,-15.549 4.895,-31.13 7.081,-46.673 0.557,-3.956 2.845,-5.442 6.059,-6.549 8.111,-2.793 15.82,-1.935 23.59,1.661 C 55.732,-42.167 71.367,-15.972 67.76,5.4 62.653,35.666 28.593,47.373 2.629,36.645 -0.506,35.278 -2.042,33.386 -1.678,29.688 -0.71,19.847 2.242,2.057 0.613,0.081 0.572,0.031 0.205,0.028 0,0 m -29.863,53.666 c -0.023,12.146 12.837,18.02 23.02,12.625 2.287,-1.218 5.749,-1.599 8.278,-0.934 C 35.772,75.15 78.191,58.479 90.542,25.546 100.448,-0.869 95.236,-23.908 79.894,-47.723 69.782,-63.42 52.832,-77.224 33.89,-81.028 c -7.38,-1.481 -15.55,-0.143 -23.354,-0.259 -2.644,-0.039 -5.541,0.026 -7.874,-0.988 -8.802,-3.824 -15.973,-1.355 -17.666,7.972 -4.426,24.373 -8.225,48.971 -12.126,73.496 -0.639,3.98 -0.25,11.432 -0.996,12.084 -0.049,0.043 -0.431,-0.027 -0.647,-0.038 -0.421,14.141 -1.063,28.372 -1.09,42.427" /></g><g
           transform="translate(610.2988,292.3471)"
           id="g64"><path
             id="path66"
             style="fill:#1d1d1b;fill-opacity:1;fill-rule:nonzero;stroke:none"
             d="m 0,0 c -2.54,22.023 -4.4,44.525 -7.418,66.291 -2.383,17.185 -5.813,34.58 -9.268,51.777 -1.765,8.787 1.519,15.891 9.716,18.259 8.159,2.355 15.318,-1.302 17.098,-10.245 C 14.101,106.13 17.89,85.921 20.634,65.924 23.601,44.306 25.47,22.096 27.825,0.244 28.642,-7.331 23.891,-12.875 15.852,-13.211 7.181,-13.575 1.018,-8.831 0,0" /></g><g
           transform="translate(659.0728,291.0571)"
           id="g68"><path
             id="path70"
             style="fill:#1d1d1b;fill-opacity:1;fill-rule:nonzero;stroke:none"
             d="m 0,0 c -9.302,4.921 -12.102,10.756 -8.489,17.727 4.035,7.787 13.605,10.044 22.03,5.973 5.569,-2.689 11.574,-4.726 17.586,-6.205 7.799,-1.918 13.844,1.321 18.115,8.004 3.6,5.631 2.944,9.887 -3.066,13.123 -4.771,2.569 -10.09,4.165 -15.224,6.048 -25.858,8.859 -43.426,34.596 -45.396,61.062 -1.285,17.26 12.086,31.706 28.458,35.153 16.805,3.537 35.243,1.645 50.333,-7.039 9.204,-4.973 11.467,-11.14 7.262,-18.197 -4.415,-7.409 -13.653,-9.168 -22.003,-4.922 -4.982,2.533 -10.48,5.148 -15.892,5.604 C 23.175,117.217 15.707,108.167 16.973,98.043 18.25,87.839 24.365,78.757 33.729,74.229 41.557,70.445 49.859,67.377 57.724,63.565 78.914,52.9 90.568,23.25 71.167,4.806 62.11,-3.935 49.074,-8.109 36.833,-8.383 24.244,-8.664 11.299,-5.979 0,0" /></g><g
           transform="translate(845.9644,440.0132)"
           id="g72"><path
             id="path74"
             style="fill:#1d1d1b;fill-opacity:1;fill-rule:nonzero;stroke:none"
             d="m 0,0 c 4.185,-0.957 8.278,-2.543 12.192,-4.304 7.359,-3.313 9.967,-9.487 7.341,-16.364 -2.778,-7.278 -10.579,-11.105 -18.01,-8.837 -34.291,10.58 -70.713,-17.925 -62.701,-54.682 1.48,-7.981 4.167,-16.066 7.955,-23.235 5.954,-11.513 19.119,-16.218 31.207,-12.169 8.347,2.795 16.39,6.873 24.566,10.383 8.998,3.862 15.834,1.868 18.966,-5.558 3.604,-8.545 -0.003,-16.511 -8.933,-19.876 -10.937,-4.122 -21.833,-8.295 -33.012,-11.917 -23.99,-6.963 -47.581,3.745 -59.107,25.703 -6.082,13.63 -10.283,27.093 -11.086,41.845 C -93.082,-33.76 -46.452,10.507 0,0" /></g><g
           transform="translate(918.1104,292.0634)"
           id="g76"><path
             id="path78"
             style="fill:#1d1d1b;fill-opacity:1;fill-rule:nonzero;stroke:none"
             d="m 0,0 c -14.104,1.997 -25.022,13.199 -29.588,26.347 -7.439,25.991 -9.544,51.568 -7.926,77.823 0.696,11.28 2.371,22.821 4.052,34.24 1.385,9.41 7.287,13.543 15.819,11.841 8.143,-1.624 12.961,-8.87 11.537,-17.21 -4.19,-28.735 -4.333,-56.415 -0.837,-85.084 C -5.207,33.719 5.283,24.661 19.571,24.703 26.768,24.724 34.596,24.834 42.11,24.797 51.4,24.75 56.69,19.412 56.418,10.551 56.154,1.969 50.838,-2.637 41.65,-2.436 37.003,-2.334 28.831,-1.551 27.702,-2.509 27.655,-2.548 27.644,-2.843 27.615,-3.01 18.408,-2.022 8.939,-1.266 0,0" /></g><g
           transform="translate(1051.4717,430.8979)"
           id="g80"><path
             id="path82"
             style="fill:#1d1d1b;fill-opacity:1;fill-rule:nonzero;stroke:none"
             d="m 0,0 c -18.733,-11.4 -27.326,-30.599 -32.039,-51.182 17.696,1.551 35.399,3.042 53.107,4.454 C 14.078,-31.137 7.056,-15.561 0,0 m -38.037,-104.322 c -0.499,-6.853 -0.777,-13.725 -1.401,-20.563 -0.925,-10.14 -11.034,-16.738 -20.139,-13.239 -4.779,1.839 -8.095,5.34 -7.603,10.533 3.083,36.053 4.075,72.417 15.954,106.225 8.089,23.02 25.483,42.161 49.387,50.121 8.323,2.804 13.716,1.077 18.735,-5.961 25.813,-38.358 37.743,-79.652 35.668,-125.22 -0.298,-6.571 -1.061,-13.293 -1.777,-19.919 -0.91,-8.42 -5.062,-12.794 -11.8,-12.734 -7.467,0.067 -14.426,5.837 -15.008,13.178 -0.329,4.166 0.692,8.422 0.783,12.643 0.217,10.053 0.282,20.119 0.372,30.178 -20.397,0.208 -40.793,0.345 -61.191,0.408 -0.686,-8.795 -1.366,-17.219 -1.98,-25.65" /></g><g
           transform="translate(1125.4238,302.2988)"
           id="g84"><path
             id="path86"
             style="fill:#1d1d1b;fill-opacity:1;fill-rule:nonzero;stroke:none"
             d="m 0,0 c -0.875,22.152 -1.038,44.73 -2.41,66.661 -1.083,17.316 -3.194,34.92 -5.345,52.328 -1.099,8.894 2.708,15.732 11.058,17.476 8.309,1.735 15.171,-2.45 16.273,-11.501 2.46,-20.194 4.718,-40.631 5.949,-60.778 C 26.857,42.405 27.052,20.119 27.756,-1.849 28,-9.464 22.848,-14.634 14.809,-14.366 6.138,-14.077 0.352,-8.882 0,0" /></g><g
           transform="translate(1263.7305,403.0742)"
           id="g88"><path
             id="path90"
             style="fill:#1d1d1b;fill-opacity:1;fill-rule:nonzero;stroke:none"
             d="m 0,0 c 5.639,10.93 11.773,21.847 17.61,32.6 4.979,9.17 16.343,10.342 23.793,3.452 6.759,-6.251 9.793,-14.611 10.998,-23.211 5.183,-37.338 9.96,-74.725 14.609,-112.133 1.183,-9.546 -2.204,-15.488 -9.598,-18.134 -8.817,-3.156 -16.018,1.091 -17.262,10.349 -1.609,11.989 -3.193,24.03 -4.609,36.013 -2.242,18.964 -4.291,38.073 -6.46,57.107 -0.222,1.935 -0.717,3.843 -1.415,7.461 -5.189,-10.298 -10.612,-20.544 -15.213,-31.126 -8.016,-18.926 -15.703,-37.973 -23.228,-57.1 -4.004,-10.228 -8.476,-14.429 -15.425,-13.345 -7.956,1.242 -12.217,7.526 -13.695,17.655 -3.628,24.261 -7.64,48.456 -11.618,72.661 -0.846,0.061 -1.695,0.122 -2.544,0.184 -2.445,-6.684 -5.154,-13.286 -7.267,-20.07 -6.063,-21.251 -10.181,-42.41 -11.875,-64.214 -0.68,-8.744 -6.73,-14.422 -15.113,-13.759 -8.339,0.659 -13.154,6.612 -12.466,15.488 3.458,44.655 15.617,86.373 36.978,126.268 3.267,5.807 6.858,10.757 14.683,9.704 7.745,-1.042 12.046,-5.864 13.867,-12.89 4.966,-19.329 9.8,-38.689 14.626,-58.054 0.291,-1.168 0.757,-2.297 1.382,-4.16 C -12.896,-26.136 -6.646,-12.883 0,0" /></g><g
           transform="translate(1374.3262,379.7583)"
           id="g92"><path
             id="path94"
             style="fill:#1d1d1b;fill-opacity:1;fill-rule:nonzero;stroke:none"
             d="m 0,0 c 14.281,-0.753 28.578,-1.466 42.831,-2.513 6.161,-0.453 10.987,-6.093 11.362,-12.404 0.433,-7.284 -3.192,-13.404 -10.589,-13.959 -9.828,-0.739 -20.152,0.077 -29.877,0.876 -5.131,0.42 -10.274,1.955 -17.106,3.322 -0.492,-9.157 -0.825,-17.997 -1.407,-26.408 -0.676,-9.757 5.2,-18.462 15.212,-19.864 8.918,-1.248 18.549,-1.477 27.792,-1.255 9.877,0.237 18.639,-8.065 15.748,-18.308 -0.969,-3.226 -4.812,-7.45 -7.835,-7.906 -20.384,-2.351 -37.933,-1.655 -57.14,5.469 -13.901,5.157 -21.193,19.875 -20.778,34.033 0.732,25.013 2.666,50.49 4.274,75.64 0.603,9.415 1.694,18.992 3.144,28.308 1.221,7.845 12.338,15.329 20.309,14.447 C 14.648,57.409 33.361,55.327 52.069,53.26 61.222,52.249 66.4,46.945 65.644,38.619 65.065,32.255 60.73,24.885 50.121,26.041 36.19,27.559 22.203,28.759 8.248,30.003 6.438,30.165 4.611,30.213 1.643,30.374 1.095,20.249 0.547,10.125 0,0" /></g><g
           transform="translate(1479.1689,367.7993)"
           id="g96"><path
             id="path98"
             style="fill:#1d1d1b;fill-opacity:1;fill-rule:nonzero;stroke:none"
             d="M 0,0 C 0.036,-0.803 -0.078,-1.727 0.278,-2.382 1.062,-3.835 1.96,-6.21 3.06,-6.355 c 7.441,-0.989 14.962,-2.158 22.423,-1.989 6.139,0.139 8.199,3.686 8.038,9.863 C 33.051,19.649 16.287,31.851 -1.108,25.646 -0.728,16.873 -0.368,8.436 0,0 m 56.374,-74.819 c 3.649,-6.993 1.625,-13.454 -4.076,-17.83 -7.789,-5.978 -16.453,-3.919 -20.385,5.073 -6.84,14.308 -14.49,26.581 -24.693,38.735 -1.783,1.925 -3.665,3.763 -6.285,6.439 -0.333,-2.685 -0.545,-4.532 -0.792,-6.371 -1.337,-10.799 -2.502,-21.702 -4.479,-32.382 -1.765,-9.54 -5.948,-12.264 -14.055,-10.815 -8.114,1.452 -13.558,8.561 -12.522,16.59 0.386,2.995 1.189,5.936 1.716,8.916 3.748,27.416 2.662,54.086 0.767,81.594 -0.618,8.858 -1.22,17.735 -1.254,26.602 -0.04,10.822 7.531,15.791 18.148,13.349 5.043,-1.16 10.713,-1.407 15.779,-0.464 C 18.392,57.104 33.94,53.394 43.573,42.318 54.192,30.108 62.427,12.98 61.43,-3.353 60.522,-18.208 49.604,-30.358 35.462,-34.726 c -0.727,-0.219 -1.419,-0.55 -1.358,-0.524 7.545,-13.121 15.225,-26.169 22.27,-39.569" /></g></g></g></g></svg>