<?xml version="1.0" encoding="UTF-8" standalone="no"?>
<svg
   xmlns:dc="http://purl.org/dc/elements/1.1/"
   xmlns:cc="http://creativecommons.org/ns#"
   xmlns:rdf="http://www.w3.org/1999/02/22-rdf-syntax-ns#"
   xmlns:svg="http://www.w3.org/2000/svg"
   xmlns="http://www.w3.org/2000/svg"
   viewBox="0 0 2666.6667 795.25598"
   height="795.25598"
   width="2666.6667"
   xml:space="preserve"
   id="svg2"
   version="1.1"><metadata
     id="metadata8"><rdf:RDF><cc:Work
         rdf:about=""><dc:format>image/svg+xml</dc:format><dc:type
           rdf:resource="http://purl.org/dc/dcmitype/StillImage" /></cc:Work></rdf:RDF></metadata><defs
     id="defs6"><clipPath
       id="clipPath18"
       clipPathUnits="userSpaceOnUse"><path
         id="path16"
         d="M 0,596.442 H 2000 V 0 H 0 Z" /></clipPath></defs><g
     transform="matrix(1.3333333,0,0,-1.3333333,0,795.256)"
     id="g10"><g
       id="g12"><g
         clip-path="url(#clipPath18)"
         id="g14"><g
           transform="translate(211.9785,348.6841)"
           id="g20"><path
             id="path22"
             style="fill:#ededed;fill-opacity:1;fill-rule:nonzero;stroke:none"
             d="m 0,0 c -48.788,-14.259 -102.452,-28.518 -151.238,-39.928 21.954,-32.798 104.891,-64.17 112.208,-96.967 7.317,-21.39 -29.272,-62.746 -46.346,-81.282 -14.636,-18.539 -24.393,-38.502 -39.029,-55.614 119.527,-9.982 278.082,4.277 382.972,37.075" /></g><g
           transform="translate(209.6523,357.1225)"
           id="g24"><path
             id="path26"
             style="fill:#3c3c3b;fill-opacity:1;fill-rule:nonzero;stroke:none"
             d="m 0,0 c -39.227,-11.459 -78.684,-22.145 -118.346,-31.992 -10.946,-2.717 -21.91,-5.365 -32.892,-7.936 -5.261,-1.231 -8.334,-8.258 -5.23,-12.855 5.031,-7.452 11.478,-13.726 18.405,-19.402 8.261,-6.77 17.026,-12.897 25.905,-18.82 8.988,-5.996 18.104,-11.797 27.076,-17.817 4.287,-2.876 8.54,-5.802 12.715,-8.838 0.938,-0.682 1.872,-1.37 2.801,-2.065 0.458,-0.342 0.915,-0.686 1.37,-1.032 0.258,-0.197 0.516,-0.394 0.774,-0.591 1.197,-0.909 -1.264,1.001 -0.434,0.336 1.831,-1.468 3.674,-2.915 5.463,-4.433 3.285,-2.785 6.458,-5.716 9.369,-8.892 0.669,-0.729 1.323,-1.472 1.96,-2.229 0.289,-0.345 0.569,-0.696 0.856,-1.042 1.098,-1.332 -1.221,1.662 -0.213,0.282 1.057,-1.449 2.071,-2.92 2.964,-4.477 0.42,-0.734 0.816,-1.482 1.182,-2.244 0.178,-0.371 0.784,-1.798 0.1,-0.153 -0.676,1.625 -0.058,0.118 0.097,-0.304 0.55,-1.495 0.981,-3.062 1.357,-4.607 0.094,-0.386 0.145,-0.784 0.242,-1.168 0.319,-1.25 -0.282,1.399 -0.164,1.3 0.05,-0.042 0.07,-0.701 0.07,-0.698 0.042,-0.904 0.088,-1.798 0.056,-2.703 -0.016,-0.436 -0.043,-0.871 -0.08,-1.306 -0.09,-1.061 -0.718,-1.96 0.087,0.415 -0.311,-0.917 -0.352,-2.012 -0.576,-2.961 -0.517,-2.186 -1.209,-4.327 -2.011,-6.423 -0.192,-0.502 -0.404,-0.996 -0.594,-1.499 -0.332,-0.877 0.486,1.125 0.429,1.012 -0.142,-0.277 -0.253,-0.583 -0.38,-0.869 -0.526,-1.184 -1.082,-2.355 -1.662,-3.513 -2.336,-4.674 -5.041,-9.16 -7.922,-13.517 -1.515,-2.292 -3.083,-4.548 -4.691,-6.775 -0.756,-1.049 -1.521,-2.09 -2.294,-3.126 -0.387,-0.517 -0.775,-1.034 -1.166,-1.549 -0.335,-0.442 -2.118,-2.687 -0.481,-0.641 -3.351,-4.19 -6.688,-8.38 -10.173,-12.462 -3.083,-3.611 -6.229,-7.168 -9.417,-10.687 -4.357,-4.808 -8.304,-9.87 -12.042,-15.182 -8.562,-12.167 -16.007,-25.091 -24.824,-37.082 -0.509,-0.692 -1.023,-1.38 -1.541,-2.065 -0.153,-0.202 -1.104,-1.436 -0.436,-0.577 0.618,0.795 -0.14,-0.175 -0.222,-0.278 -1.229,-1.545 -2.475,-3.073 -3.754,-4.576 -2.334,-2.745 -3.265,-6.11 -1.809,-9.56 1.425,-3.377 4.428,-5.083 7.997,-5.379 24.588,-2.044 49.261,-2.983 73.931,-3.118 26.256,-0.144 52.518,0.626 78.728,2.191 26.52,1.584 52.995,3.983 79.362,7.245 25.865,3.201 51.644,7.146 77.22,12.17 22.978,4.514 45.815,9.864 68.269,16.527 2.602,0.772 5.198,1.564 7.789,2.372 4.364,1.362 7.602,6.162 6.112,10.765 -1.419,4.388 -6.085,7.573 -10.765,6.112 -21.917,-6.841 -44.236,-12.351 -66.712,-17.012 -12.224,-2.535 -24.501,-4.814 -36.814,-6.872 -6.219,-1.04 -12.446,-2.023 -18.681,-2.954 -3.207,-0.478 -6.415,-0.943 -9.626,-1.394 -1.557,-0.219 -3.114,-0.434 -4.672,-0.646 -0.446,-0.061 -0.893,-0.121 -1.338,-0.182 -1.02,-0.139 0.603,0.081 0.651,0.088 -0.892,-0.127 -1.788,-0.238 -2.682,-0.356 -26.184,-3.437 -52.482,-6.006 -78.83,-7.772 -26.189,-1.755 -52.434,-2.718 -78.682,-2.792 -24.824,-0.071 -49.661,0.646 -74.423,2.441 -2.947,0.214 -5.892,0.444 -8.837,0.689 2.063,-4.98 4.126,-9.959 6.188,-14.939 10.098,11.87 18.241,25.108 26.752,38.112 2.136,3.263 4.304,6.504 6.543,9.697 1.098,1.565 2.213,3.119 3.349,4.656 0.534,0.724 1.073,1.444 1.617,2.16 0.234,0.308 0.467,0.616 0.704,0.922 -1.002,-1.296 0.101,0.094 0.318,0.343 2.848,3.265 5.845,6.405 8.708,9.66 7.588,8.629 14.888,17.545 21.581,26.89 6.445,9.002 12.25,18.492 16.18,28.881 3.245,8.581 4.128,17.545 1.252,26.344 -2.715,8.301 -8.21,15.363 -14.327,21.463 -7.164,7.143 -15.366,13.267 -23.607,19.1 -8.872,6.279 -18.016,12.163 -27.113,18.108 -8.891,5.811 -17.779,11.652 -26.295,18.006 -0.918,0.684 -1.818,1.394 -2.739,2.074 2.226,-1.641 0.343,-0.262 -0.133,0.114 -0.499,0.393 -0.995,0.789 -1.489,1.187 -1.855,1.495 -3.681,3.027 -5.461,4.608 -3.197,2.84 -6.267,5.841 -9.029,9.109 -0.292,0.347 -0.581,0.697 -0.866,1.049 -0.98,1.214 -0.201,0.366 0.309,-0.42 -0.534,0.822 -1.169,1.59 -1.718,2.405 -1.744,-4.285 -3.487,-8.571 -5.23,-12.856 39.668,9.284 79.111,19.545 118.345,30.522 10.982,3.073 21.947,6.208 32.893,9.406 4.39,1.283 7.583,6.219 6.112,10.765 C 9.323,-1.657 4.707,1.375 0,0" /></g><g
           transform="translate(1799.9736,347.2851)"
           id="g28"><path
             id="path30"
             style="fill:#ededed;fill-opacity:1;fill-rule:nonzero;stroke:none"
             d="m 0,0 c 48.783,-14.261 102.449,-28.52 151.235,-39.928 -21.954,-32.797 -104.892,-64.169 -112.213,-96.967 -7.317,-21.39 29.275,-62.745 46.35,-81.282 14.638,-18.539 24.395,-38.502 39.032,-55.615 -119.527,-9.983 -278.082,4.278 -382.974,37.076" /></g><g
           transform="translate(1797.6475,338.8466)"
           id="g32"><path
             id="path34"
             style="fill:#3c3c3b;fill-opacity:1;fill-rule:nonzero;stroke:none"
             d="m 0,0 c 39.225,-11.461 78.682,-22.147 118.343,-31.993 10.946,-2.717 21.91,-5.365 32.892,-7.935 l -5.229,12.855 c -0.517,-0.765 -1.085,-1.493 -1.607,-2.254 -0.496,-0.726 0.933,1.165 0.793,1.02 -0.171,-0.177 -0.317,-0.406 -0.475,-0.6 -0.369,-0.451 -0.738,-0.904 -1.115,-1.349 -1.32,-1.552 -2.71,-3.043 -4.149,-4.486 -3.218,-3.229 -6.665,-6.222 -10.213,-9.08 -0.494,-0.399 -0.991,-0.794 -1.49,-1.187 -0.275,-0.218 -1.868,-1.451 -0.635,-0.502 1.237,0.95 -0.382,-0.289 -0.661,-0.502 -0.59,-0.447 -1.181,-0.891 -1.774,-1.333 -2.092,-1.558 -4.209,-3.083 -6.341,-4.585 -4.293,-3.024 -8.65,-5.956 -13.028,-8.853 -17.88,-11.829 -36.578,-22.944 -52.7,-37.183 -6.324,-5.586 -12.561,-12.042 -16.432,-19.621 -4.272,-8.36 -5.492,-17.25 -3.325,-26.421 2.394,-10.133 7.8,-19.666 13.458,-28.308 6.421,-9.811 13.736,-19.059 21.322,-27.991 3.11,-3.661 6.286,-7.267 9.506,-10.831 1.405,-1.555 2.873,-3.064 4.243,-4.65 0.215,-0.248 0.974,-1.21 0.399,-0.477 -0.587,0.748 0.202,-0.263 0.262,-0.342 0.622,-0.819 1.24,-1.64 1.852,-2.467 1.211,-1.64 2.398,-3.298 3.567,-4.968 8.663,-12.385 16.213,-25.528 25.266,-37.643 2.51,-3.358 5.096,-6.662 7.813,-9.856 2.062,4.98 4.126,9.959 6.188,14.939 -24.477,-2.035 -49.04,-2.975 -73.598,-3.116 -26.138,-0.15 -52.28,0.606 -78.373,2.149 -26.411,1.563 -52.778,3.936 -79.037,7.162 -3.256,0.4 -6.511,0.813 -9.764,1.241 -0.783,0.102 -1.565,0.207 -2.348,0.31 -1.021,0.134 0.604,-0.084 0.652,-0.088 -0.442,0.032 -0.897,0.121 -1.338,0.181 -1.67,0.227 -3.339,0.458 -5.008,0.692 -6.398,0.899 -12.789,1.852 -19.172,2.862 -12.344,1.954 -24.654,4.12 -36.917,6.533 -22.871,4.501 -45.603,9.832 -67.955,16.465 -2.602,0.772 -5.199,1.564 -7.79,2.373 -4.37,1.364 -9.739,-1.612 -10.765,-6.113 -1.083,-4.755 1.432,-9.304 6.113,-10.764 22.017,-6.872 44.441,-12.402 67.021,-17.077 25.436,-5.266 51.087,-9.394 76.836,-12.789 26.291,-3.466 52.698,-6.057 79.157,-7.837 26.192,-1.763 52.441,-2.733 78.692,-2.815 24.935,-0.078 49.885,0.636 74.758,2.44 2.946,0.213 5.892,0.444 8.836,0.689 3.563,0.296 6.555,1.961 7.998,5.379 1.437,3.406 0.527,6.813 -1.81,9.56 -1.198,1.409 -2.376,2.836 -3.524,4.287 -0.23,0.289 -0.456,0.581 -0.685,0.87 1.044,-1.319 0.225,-0.293 0.02,-0.019 -0.589,0.785 -1.182,1.568 -1.764,2.359 -2.18,2.963 -4.276,5.989 -6.324,9.044 -4.134,6.165 -8.078,12.453 -12.152,18.657 -4.449,6.778 -9.065,13.462 -14.123,19.806 -2.728,3.423 -5.908,6.544 -8.807,9.828 -3.446,3.901 -6.828,7.857 -10.121,11.887 -0.8,0.981 -1.596,1.966 -2.386,2.956 -0.399,0.499 -0.795,1 -1.191,1.502 -0.227,0.288 -0.453,0.576 -0.679,0.865 -0.189,0.241 -1.197,1.542 -0.33,0.421 0.821,-1.064 -0.42,0.551 -0.662,0.869 -0.39,0.514 -0.78,1.03 -1.167,1.547 -0.884,1.183 -1.759,2.373 -2.622,3.572 -3.164,4.395 -6.179,8.902 -8.918,13.576 -1.287,2.197 -2.511,4.432 -3.644,6.713 -0.505,1.015 -0.991,2.039 -1.454,3.074 -0.13,0.289 -0.25,0.583 -0.384,0.87 -0.4,0.857 0.463,-1.127 0.424,-1.01 -0.223,0.65 -0.521,1.283 -0.764,1.926 -0.767,2.028 -1.432,4.099 -1.931,6.21 -0.228,0.97 -0.305,2.008 -0.576,2.961 -0.052,0.188 0.232,-2.257 0.185,-1.364 -0.014,0.254 -0.058,0.507 -0.081,0.76 -0.045,0.498 -0.078,0.996 -0.097,1.495 -0.032,0.905 0.003,1.801 0.057,2.704 0.103,1.761 -0.24,-1.291 -0.123,-0.772 0.099,0.444 0.163,0.895 0.27,1.338 0.376,1.545 0.808,3.112 1.357,4.607 0.13,0.351 0.291,0.695 0.411,1.049 -0.969,-2.866 -0.563,-1.323 -0.213,-0.592 0.365,0.763 0.762,1.51 1.183,2.244 0.892,1.558 1.909,3.027 2.964,4.477 1.075,1.477 -1.2,-1.469 -0.333,-0.431 0.329,0.394 0.646,0.798 0.976,1.191 0.637,0.758 1.292,1.5 1.96,2.23 1.41,1.538 2.884,3.017 4.398,4.451 3.389,3.206 7.048,6.039 10.624,9.021 0.083,0.07 -1.569,-1.199 -0.815,-0.63 0.259,0.195 0.515,0.394 0.772,0.59 0.455,0.346 0.911,0.69 1.368,1.033 1.06,0.795 2.128,1.58 3.2,2.359 2.063,1.498 4.146,2.969 6.242,4.421 8.764,6.07 17.743,11.82 26.657,17.666 8.668,5.684 17.315,11.432 25.561,17.719 7.472,5.696 14.927,11.661 20.928,18.947 1.585,1.924 3.118,3.908 4.513,5.976 3.105,4.597 0.03,11.624 -5.229,12.855 C 116.219,-13.768 76.776,-3.508 37.544,7.47 26.562,10.543 15.599,13.679 4.653,16.877 0.261,18.16 -5.073,15.323 -6.112,10.765 -7.179,6.08 -4.704,1.374 0,0" /></g><g
           transform="translate(294.9678,162.205)"
           id="g36"><path
             id="path38"
             style="fill:#9d9d9c;fill-opacity:1;fill-rule:nonzero;stroke:none"
             d="m 0,0 c 30.573,0.119 49.11,7.49 75.865,12.871 15.555,3.127 32.371,2.831 48.541,4.209 27.277,2.323 84.383,18.691 102.698,0.065 15.908,-16.184 -6.592,-55.819 -12.499,-73.087 -36.59,4.278 -82.936,22.817 -121.963,31.372 -31.713,7.13 -68.302,11.408 -97.574,21.392" /></g><g
           transform="translate(294.9678,153.4541)"
           id="g40"><path
             id="path42"
             style="fill:#3c3c3b;fill-opacity:1;fill-rule:nonzero;stroke:none"
             d="m 0,0 c 12.159,0.062 24.278,1.372 36.216,3.66 10.138,1.944 20.12,4.591 30.167,6.939 6.488,1.516 12.999,2.979 19.605,3.876 -0.775,-0.104 -1.551,-0.208 -2.326,-0.312 14.137,1.873 28.43,1.643 42.601,3.091 9.57,0.978 19.059,2.699 28.546,4.26 5.808,0.955 11.622,1.879 17.456,2.667 -0.776,-0.104 -1.552,-0.208 -2.327,-0.312 12.456,1.672 25.32,3.035 37.851,1.369 -0.776,0.104 -1.551,0.208 -2.327,0.312 3.916,-0.537 7.799,-1.408 11.456,-2.936 -0.697,0.295 -1.394,0.589 -2.091,0.883 2.036,-0.869 3.971,-1.937 5.734,-3.279 l -1.771,1.368 c 1.269,-0.986 2.422,-2.095 3.422,-3.355 l -1.368,1.771 c 0.991,-1.284 1.797,-2.679 2.436,-4.17 l -0.882,2.09 c 0.802,-1.939 1.302,-3.968 1.586,-6.045 -0.105,0.776 -0.209,1.551 -0.313,2.327 0.446,-3.497 0.29,-7.027 -0.163,-10.515 0.105,0.776 0.209,1.551 0.313,2.327 -1.65,-12.221 -6.509,-23.867 -11.266,-35.149 l 0.882,2.09 c -2.491,-5.902 -5.185,-11.759 -7.27,-17.822 2.812,2.142 5.625,4.283 8.438,6.425 -0.983,0.116 -1.966,0.24 -2.947,0.372 0.775,-0.104 1.55,-0.208 2.326,-0.312 -13.602,1.856 -26.971,5.178 -40.188,8.833 -14.271,3.946 -28.406,8.362 -42.607,12.549 -13.713,4.044 -27.49,7.794 -41.479,10.766 -14.754,3.134 -29.631,5.643 -44.444,8.477 -14.46,2.767 -28.927,5.78 -42.993,10.174 -1.632,0.511 -3.258,1.042 -4.878,1.592 -4.338,1.475 -9.758,-1.69 -10.765,-6.112 -1.105,-4.852 1.467,-9.186 6.112,-10.765 14.017,-4.763 28.518,-7.969 43.027,-10.826 15.131,-2.979 30.347,-5.52 45.455,-8.618 14.225,-2.916 28.241,-6.575 42.177,-10.644 14.5,-4.234 28.915,-8.758 43.46,-12.835 13.478,-3.777 27.111,-7.262 40.981,-9.26 2.251,-0.325 4.505,-0.627 6.763,-0.893 0.776,0.104 1.551,0.208 2.327,0.312 1.139,0.271 2.13,0.793 2.976,1.567 1.566,1.209 2.485,2.653 3.136,4.545 1.149,3.343 2.529,6.604 3.901,9.86 -0.294,-0.697 -0.588,-1.394 -0.882,-2.091 4.777,11.316 9.892,22.624 12.939,34.562 1.504,5.893 2.618,12.117 2.424,18.217 -0.187,5.928 -1.512,12.319 -5.032,17.223 -3.556,4.954 -8.189,8.438 -13.778,10.797 -5.522,2.331 -11.252,3.372 -17.205,3.969 -11.733,1.176 -23.668,-0.069 -35.306,-1.625 -12.418,-1.661 -24.734,-3.936 -37.124,-5.78 -1.261,-0.187 -2.523,-0.367 -3.786,-0.538 0.776,0.104 1.552,0.208 2.327,0.312 -14.403,-1.933 -28.991,-1.664 -43.433,-3.194 -15.194,-1.61 -29.875,-5.661 -44.714,-9.12 -7.532,-1.755 -15.111,-3.297 -22.778,-4.332 0.776,0.104 1.551,0.208 2.326,0.313 C 15.32,18.046 7.669,17.542 0,17.502 -4.577,17.479 -8.964,13.494 -8.751,8.751 -8.54,4.03 -4.906,-0.025 0,0" /></g><g
           transform="translate(1721.9678,169.3349)"
           id="g44"><path
             id="path46"
             style="fill:#9d9d9c;fill-opacity:1;fill-rule:nonzero;stroke:none"
             d="m 0,0 c -29.435,0.059 -55.349,3.251 -84.182,6.061 -28.425,2.775 -98.731,29.658 -112.852,9.481 -11.738,-16.774 3.901,-56.329 14.026,-72.909 39.035,11.409 65.867,28.52 107.336,38.504 36.588,7.128 65.863,19.962 100.012,31.371" /></g><g
           transform="translate(1721.9678,178.0859)"
           id="g48"><path
             id="path50"
             style="fill:#3c3c3b;fill-opacity:1;fill-rule:nonzero;stroke:none"
             d="m 0,0 c -23.521,0.061 -46.916,2.305 -70.294,4.672 -5.477,0.555 -10.985,0.965 -16.442,1.686 0.775,-0.104 1.55,-0.208 2.326,-0.312 -12.206,1.643 -24.194,4.988 -36.149,7.866 -14.303,3.442 -28.677,6.741 -43.32,8.376 -5.753,0.642 -11.607,1.006 -17.382,0.435 -5.735,-0.568 -11.784,-1.671 -16.664,-4.959 -13.462,-9.072 -13.121,-27.201 -10.592,-41.467 1.352,-7.62 3.624,-15.074 6.366,-22.302 2.714,-7.158 5.807,-14.227 9.506,-20.936 0.668,-1.212 1.361,-2.411 2.081,-3.594 1.99,-3.269 6.128,-5.122 9.882,-4.021 26.228,7.688 50.747,19.786 76.38,29.096 6.665,2.421 13.406,4.639 20.226,6.585 3.55,1.013 7.124,2.03 10.73,2.822 3.844,0.845 7.707,1.581 11.54,2.483 14.261,3.354 28.246,7.738 42.083,12.527 15.496,5.362 30.838,11.16 46.389,16.361 2.161,0.723 4.058,2.018 5.23,4.022 1.098,1.876 1.563,4.64 0.882,6.743 -1.395,4.313 -6.116,7.667 -10.764,6.112 -27.821,-9.305 -55.035,-20.506 -83.532,-27.684 -7.426,-1.871 -14.971,-3.214 -22.372,-5.177 -6.974,-1.85 -13.871,-3.989 -20.685,-6.359 -12.638,-4.397 -24.959,-9.612 -37.312,-14.739 -14.258,-5.918 -28.621,-11.569 -43.448,-15.915 3.295,-1.341 6.589,-2.681 9.883,-4.022 -3.282,5.393 -6.032,11.111 -8.492,16.919 l 0.882,-2.091 c -4.203,9.978 -7.627,20.449 -9.108,31.203 0.105,-0.775 0.209,-1.551 0.313,-2.326 -0.622,4.662 -0.865,9.401 -0.256,14.078 -0.105,-0.775 -0.209,-1.551 -0.313,-2.326 0.334,2.428 0.905,4.811 1.845,7.079 -0.294,-0.697 -0.588,-1.394 -0.883,-2.09 0.629,1.47 1.397,2.885 2.374,4.154 l -1.368,-1.771 c 0.682,0.86 1.459,1.624 2.322,2.302 -0.591,-0.456 -1.18,-0.912 -1.771,-1.368 1.199,0.919 2.516,1.647 3.906,2.237 -0.697,-0.294 -1.394,-0.588 -2.091,-0.882 2.402,0.996 4.944,1.569 7.512,1.924 -0.775,-0.104 -1.551,-0.209 -2.326,-0.313 7.426,0.989 15.03,0.323 22.42,-0.66 -0.776,0.104 -1.551,0.208 -2.327,0.312 17.89,-2.409 35.368,-7.199 52.909,-11.329 7.868,-1.852 15.75,-3.564 23.775,-4.574 6.043,-0.76 12.135,-1.233 18.194,-1.846 6.837,-0.691 13.674,-1.376 20.517,-1.991 15.771,-1.415 31.579,-2.401 47.418,-2.442 4.577,-0.012 8.962,4.034 8.751,8.751 C 8.538,-4 4.906,-0.013 0,0" /></g><g
           transform="translate(777.8965,520.517)"
           id="g52"><path
             id="path54"
             style="fill:#ededed;fill-opacity:1;fill-rule:nonzero;stroke:none"
             d="m 0,0 c 248.812,-4.277 501.279,4.278 750.09,-4.277 69.519,-2.139 168.315,-6.417 230.515,-25.668 73.177,-21.39 73.177,-40.641 54.886,-85.559 -18.298,-51.337 -43.908,-104.813 -51.229,-156.147 -3.657,-17.114 3.66,-34.225 -7.317,-51.337 -10.977,-29.946 -3.66,-25.669 -58.54,-23.53 -91.474,4.279 -175.633,27.807 -270.764,29.945 -98.796,2.14 -190.271,4.281 -289.06,8.557 -135.382,8.557 -270.765,-4.276 -402.488,-17.111 -80.497,-8.557 -164.653,-4.279 -248.811,-10.696 -62.202,-4.277 -117.086,-17.111 -175.632,-23.528 -91.472,-10.694 -73.177,62.031 -73.177,102.672 0,44.855 -15.568,91.302 -32.19,134.918 -10.101,26.51 -42.545,58.445 -6.223,82.333 35.827,23.562 113.672,15.367 162.564,18.158 C -278.394,-13.332 -140.125,1.463 0,0" /></g><g
           transform="translate(777.8965,511.7661)"
           id="g56"><path
             id="path58"
             style="fill:#3c3c3b;fill-opacity:1;fill-rule:nonzero;stroke:none"
             d="m 0,0 c 142.603,-2.42 285.226,-0.704 427.837,-0.351 134.778,0.333 270.19,1.078 404.754,-7.609 55.388,-3.576 111.74,-8.995 164.377,-27.655 13.383,-4.745 34.333,-11.861 38.993,-26.92 4.226,-13.655 -4.605,-30.461 -9.401,-43.268 -11.678,-31.178 -24.517,-61.996 -35.193,-93.538 -5.262,-15.548 -9.925,-31.332 -13.164,-47.434 -1.425,-7.085 -2.824,-14.331 -3.516,-21.53 -0.735,-7.644 0.101,-15.311 -0.135,-22.966 -0.348,-11.31 -6.254,-21.552 -10.077,-32.084 -1.103,-3.035 -0.967,-3.356 -2.499,-5.656 -0.601,-0.903 -0.964,-0.807 -0.495,-0.703 -4.968,-1.095 -11.75,-0.801 -18.344,-0.485 -13.747,0.657 -27.513,1.186 -41.241,2.163 -66.763,4.752 -132.386,18.94 -198.951,25.5 -34.299,3.381 -68.68,3.74 -103.108,4.521 -35.348,0.803 -70.693,1.667 -106.036,2.686 -70.632,2.038 -141.301,6.867 -211.947,7.519 -71.089,0.656 -142.129,-3.495 -212.946,-9.388 -69.705,-5.801 -139.07,-14.206 -209.047,-15.993 -70.212,-1.793 -140.385,-1.711 -210.104,-11.321 -32.924,-4.538 -65.626,-10.566 -98.57,-14.959 -21.095,-2.813 -47.727,-8.387 -67.232,3.431 -24.694,14.962 -18.154,53.488 -17.033,77.454 1.303,27.838 -3.093,55.541 -10.267,82.386 -7.806,29.207 -17.284,59.344 -31.86,85.936 -5.292,9.654 -12.216,20.334 -12.743,31.66 -0.566,12.174 10.047,19.92 20.021,24.621 21.016,9.904 46.323,10.854 69.127,11.599 25.825,0.843 51.69,-0.243 77.505,0.915 34.192,1.534 68.363,4.248 102.5,6.68 71.025,5.06 142.045,10.486 213.212,13.169 C -70.405,-0.294 -35.204,0.336 0,0 11.266,-0.108 11.275,17.394 0,17.502 -74.032,18.21 -147.995,14.489 -221.84,9.554 -258.406,7.11 -294.952,4.388 -331.509,1.811 c -33.984,-2.394 -68.114,-5.545 -102.186,-6.145 -27.205,-0.479 -54.45,0.508 -81.619,-1.362 -22.946,-1.58 -48.455,-4.323 -68.325,-16.968 -11.005,-7.003 -19.912,-17.083 -21.511,-30.406 -1.378,-11.48 2.848,-22.561 7.775,-32.716 5.52,-11.378 12.359,-21.954 16.841,-33.827 6.334,-16.78 12.355,-33.693 17.413,-50.907 8.365,-28.468 13.911,-57.679 12.57,-87.447 -0.689,-15.296 -2.137,-30.667 -0.407,-45.947 1.766,-15.587 6.666,-31.482 18.976,-42.037 15.738,-13.495 37.617,-15.589 57.517,-14.001 33.275,2.656 66.337,9.023 99.286,14.171 35.87,5.605 71.761,9.664 108.024,11.603 72.835,3.893 146.006,1.297 218.658,8.578 72.788,7.295 145.687,14.163 218.762,17.805 36.632,1.825 73.313,2.795 109.991,2.496 36.814,-0.3 73.524,-2.59 110.299,-4.038 72.372,-2.852 144.776,-4.733 217.184,-6.358 35.867,-0.805 71.541,-1.639 107.233,-5.605 34.672,-3.852 69.092,-9.572 103.604,-14.595 34.039,-4.953 68.183,-9.204 102.567,-10.733 10.783,-0.479 21.612,-1.431 32.41,-1.412 5.913,0.01 12.209,0.385 17.326,3.665 5.188,3.327 7.632,8.856 9.751,14.396 3.685,9.634 9.033,19.46 10.601,29.626 1.162,7.525 0.742,15.016 0.661,22.591 -0.091,8.455 1.3,16.669 2.919,24.95 3.238,16.583 8.022,32.827 13.434,48.818 10.916,32.257 23.786,63.976 36.024,95.751 5.843,15.172 12.74,31.681 9.107,48.252 -3.752,17.115 -19.617,27.595 -34.548,34.364 -24.127,10.936 -50.402,17.734 -76.373,22.594 C 884.428,7.827 824.968,10.68 766.08,12.707 694.385,15.174 622.669,16.533 550.933,16.983 403.355,17.911 255.78,15.655 108.203,16.361 72.133,16.533 36.065,16.89 0,17.502 -11.267,17.693 -11.269,0.191 0,0" /></g><g
           transform="translate(395.189,348.6772)"
           id="g60"><path
             id="path62"
             style="fill:#1d1d1b;fill-opacity:1;fill-rule:nonzero;stroke:none"
             d="m 0,0 c -1.113,8.347 -2.218,17.221 -3.514,26.068 -0.86,5.87 -2.126,11.683 -2.971,17.553 -1.078,7.487 3.896,13.542 11.938,14.817 8.803,1.395 17.334,-4.424 18.513,-13.127 3.101,-22.867 6.457,-45.941 8.671,-68.696 1.9,-19.515 2.708,-39.497 3.756,-59.247 0.529,-9.979 -5.515,-16.232 -15.409,-16.464 -8.888,-0.207 -13.861,5.166 -14.398,15.087 -0.901,16.677 -1.93,33.386 -2.94,50.078 -0.039,0.636 -0.306,1.258 -0.746,2.986 -21.881,-5.39 -42.2,-7.397 -64.753,-5.633 -0.605,-14.006 -0.285,-28.259 3.105,-41.869 2.84,-11.398 -5.331,-24.67 -18.29,-20.737 -3.864,1.276 -8.51,5.746 -9.374,9.531 -3.117,13.446 -5.713,27.134 -6.588,40.86 -1.794,28.175 -2.48,56.675 -3.445,85.008 -0.285,8.366 5.31,14.205 13.808,14.861 8.529,0.658 15.926,-5.05 16.754,-13.668 1.321,-13.733 2.314,-27.66 3.427,-41.446 0.085,-1.052 0.352,-2.093 0.51,-2.989 C -40,-8.425 -20.911,-6.686 0,0" /></g><g
           transform="translate(536.8188,389.9511)"
           id="g64"><path
             id="path66"
             style="fill:#1d1d1b;fill-opacity:1;fill-rule:nonzero;stroke:none"
             d="m 0,0 c -0.717,2.314 -3.341,5.101 -5.624,5.693 -5.964,1.546 -12.237,1.913 -18.367,2.89 -12.772,2.968 -23.68,-3.437 -29.483,-14.568 -8.232,-15.792 -12.316,-34.817 -8.25,-52.291 3.175,-13.642 10.713,-28.105 24.008,-34.696 18.613,-9.228 45.703,-1.454 45.209,22.91 -0.274,13.466 1.886,29.719 0.408,41.676 C 6.854,-19.922 2.771,-9.433 0,0 m 35.563,-80.784 c -4.577,-33.18 -37.708,-51.696 -68.865,-46.499 -27.715,4.624 -47.234,26.673 -55.012,51.789 -10.491,33.872 -3.069,65.213 15.153,96.195 9.135,15.89 27.627,22.296 45.078,18.791 5.677,-1.062 10.861,-1.875 16.554,1.683 2.728,1.704 8.449,0.709 11.895,-0.92 14.681,-7.308 26.33,-20.74 30.775,-36.498 3.553,-12.601 8.156,-27.048 8.853,-38.344 0.818,-13.269 -2.332,-30.836 -4.431,-46.197" /></g><g
           transform="translate(676.1421,393.9648)"
           id="g68"><path
             id="path70"
             style="fill:#1d1d1b;fill-opacity:1;fill-rule:nonzero;stroke:none"
             d="m 0,0 c 6.843,12.226 22.935,13.961 29.747,0.229 8.41,-16.954 19.107,-34.867 28.544,-52.367 2.459,6.5 4.867,12.444 6.987,18.489 7.558,21.532 15.127,43.06 22.608,64.619 2.697,7.807 9.236,12.021 16.996,10.261 9.085,-2.061 15.08,-9.303 12.555,-17.195 -5.929,-17.905 -12.424,-35.643 -18.578,-53.432 -6.006,-17.36 -11.958,-34.819 -17.175,-52.473 -1.803,-6.183 -1.489,-13.064 -1.561,-19.631 -0.104,-9.418 -3.129,-14.662 -10.181,-16.307 -8.069,-1.882 -15.746,1.959 -19.504,9.974 -7.41,15.904 -14.783,31.823 -22.327,47.664 -4.16,8.546 -8.769,16.891 -13.265,25.262 -6.505,-12.89 -13.178,-25.736 -19.256,-38.801 -5.826,-12.524 -11.199,-25.317 -16.441,-38.127 -2.477,-6.027 -5.896,-10.151 -13.024,-10.052 -7.088,0.1 -13.188,3.83 -15.761,10.903 -6.671,18.126 -13.654,36.335 -19.231,54.61 -7.658,25.094 -14.189,51.102 -20.977,76.746 -2.489,11.554 7.653,21.856 19.241,19.551 5.617,-1.421 8.305,-5.039 9.793,-10.463 8.266,-29.999 16.658,-59.962 24.99,-89.943 0.388,-1.393 1.189,-2.676 1.707,-3.819 C -22.866,-42.799 -11.654,-21.286 0,0" /></g><g
           transform="translate(883.5181,387.7578)"
           id="g72"><path
             id="path74"
             style="fill:#1d1d1b;fill-opacity:1;fill-rule:nonzero;stroke:none"
             d="m 0,0 c -9.932,0.09 -16.342,6.605 -16.72,16.044 -0.363,9.045 4.442,13.676 13.66,14.096 21.411,0.976 42.971,1.859 64.207,3.297 16.838,1.139 33.898,2.924 50.785,4.364 5.81,0.495 11.679,-1.139 13.297,-6.683 1.471,-5.041 1.659,-11.541 -0.438,-16.128 -1.533,-3.352 -7.499,-6.039 -11.82,-6.63 C 99.421,6.788 85.939,5.622 72.348,4.702 67.833,4.396 66.555,2.555 66.836,-1.471 c 0.721,-10.303 1.316,-20.629 1.997,-30.927 0.261,-3.939 0.852,-7.877 0.991,-11.815 0.652,-18.432 1.078,-37.199 1.517,-55.37 0.253,-10.5 -7.536,-19.519 -18.518,-17.718 -8.358,1.371 -13.071,7.929 -12.226,16.427 0.51,5.141 -0.242,10.431 -0.665,15.635 -0.444,5.454 -1.606,10.88 -1.701,16.322 -0.403,23.074 -0.571,46.2 -0.8,69.3 C 24.949,0.188 12.39,-0.112 0,0" /></g><g
           transform="translate(1122.4746,401.9004)"
           id="g76"><path
             id="path78"
             style="fill:#1d1d1b;fill-opacity:1;fill-rule:nonzero;stroke:none"
             d="m 0,0 c -0.567,2.355 -3.007,5.304 -5.246,6.04 -5.85,1.923 -12.083,2.689 -18.134,4.055 -12.552,3.777 -23.837,-1.924 -30.331,-12.659 -9.216,-15.237 -14.499,-33.962 -11.559,-51.659 2.296,-13.813 8.889,-28.728 21.731,-36.156 17.985,-10.402 45.489,-4.352 46.548,19.982 0.585,13.456 3.775,29.537 3.062,41.565 C 5.566,-20.318 2.162,-9.59 0,0 m 30.321,-82.886 c -6.675,-32.806 -40.887,-49.192 -71.643,-42.015 -27.354,6.383 -45.407,29.64 -51.561,55.191 -8.302,34.468 1.093,65.273 21.24,95.033 10.12,15.271 28.968,20.49 46.151,15.879 5.596,-1.422 10.713,-2.564 16.618,0.624 2.829,1.527 8.472,0.169 11.804,-1.677 14.18,-8.231 24.94,-22.379 28.368,-38.384 2.742,-12.803 6.412,-27.513 6.387,-38.831 -0.03,-13.295 -4.29,-30.624 -7.364,-45.82" /></g><g
           transform="translate(1262.2559,409.6679)"
           id="g80"><path
             id="path82"
             style="fill:#1d1d1b;fill-opacity:1;fill-rule:nonzero;stroke:none"
             d="m 0,0 c 0.396,-11.092 0.764,-22.207 1.551,-33.279 0.104,-1.428 2.941,-3.854 4.438,-3.802 13.033,0.473 25.169,6.026 35.146,14.223 C 33.412,-8.451 16.873,3.242 0,0 m 6.847,-98.487 c 0.876,-8.514 2.155,-16.999 2.822,-25.529 0.649,-8.319 -3.443,-14 -11.145,-16.503 -9.437,-3.066 -16.593,0.853 -17.939,10.547 -1.87,13.48 -3.565,27.077 -4.69,40.555 -2.646,31.691 -4.475,64.017 -6.642,96.031 -0.211,3.07 -0.416,6.186 -0.124,9.232 0.623,6.492 3.803,10.852 10.714,12.572 32.836,7.864 65.848,-2.553 85.215,-31.12 12.102,-16.291 6.516,-37.677 -9.82,-48.314 C 42.409,-59.37 26.368,-65.223 10.636,-66.639 8.668,-66.796 6.718,-67.181 3.869,-67.593 4.846,-77.892 5.789,-88.2 6.847,-98.487" /></g><g
           transform="translate(1386.0635,265.1582)"
           id="g84"><path
             id="path86"
             style="fill:#1d1d1b;fill-opacity:1;fill-rule:nonzero;stroke:none"
             d="m 0,0 c -15.269,2.943 -26.431,15.785 -30.627,30.339 -6.749,28.663 -7.395,56.502 -4.061,85.023 1.429,12.231 3.899,24.659 6.384,36.968 2.049,10.145 8.678,14.293 17.817,11.952 C -1.765,162.047 3.038,153.897 1.017,144.917 -5.177,113.934 -6.034,83.33 -4.786,52.51 -4.143,36.626 7.252,26.876 22.678,25.725 30.689,25.127 39.007,25.017 47.169,24.554 57.261,23.981 62.71,17.885 61.92,8.273 61.154,-1.039 55.116,-5.749 45.14,-5.014 40.093,-4.642 31.258,-3.327 29.971,-4.306 29.918,-4.346 29.889,-4.666 29.847,-4.846 19.895,-3.375 9.681,-1.866 0,0" /></g><g
           transform="translate(1538.5039,408.6421)"
           id="g88"><path
             id="path90"
             style="fill:#1d1d1b;fill-opacity:1;fill-rule:nonzero;stroke:none"
             d="m 0,0 c -20.932,-11.403 -31.275,-31.807 -37.505,-53.897 19.283,0.713 38.567,1.375 57.854,1.989 C 13.597,-34.593 6.82,-17.288 0,0 m -46.918,-111.322 c -0.917,-7.419 -1.539,-14.95 -2.648,-22.27 -1.593,-10.502 -12.445,-17.449 -22.622,-13.279 -5.093,2.263 -8.503,6.253 -7.68,11.867 5.35,39.006 8.364,78.667 23.19,114.56 9.937,24.057 29.878,44.886 56.232,51.793 9.161,2.603 14.907,0.44 19.966,-7.474 25.962,-42.922 36.76,-88.684 32.093,-137.973 -0.675,-7.132 -1.845,-14.392 -2.97,-21.557 -1.43,-9.104 -6.173,-13.641 -13.496,-13.222 -8.117,0.465 -15.378,7.105 -15.621,15.114 -0.138,4.545 1.197,9.116 1.519,13.699 0.768,10.915 1.37,21.852 2.001,32.78 -22.134,1.308 -44.271,2.552 -66.412,3.731 -1.225,-9.521 -2.425,-18.638 -3.552,-27.769" /></g><g
           transform="translate(1625.1807,378.2553)"
           id="g92"><path
             id="path94"
             style="fill:#1d1d1b;fill-opacity:1;fill-rule:nonzero;stroke:none"
             d="m 0,0 c -3.335,8.583 -7.271,16.982 -11.521,25.176 -4.2,8.097 -3.725,14.224 2.455,18.595 6.914,4.891 17.343,4.752 21.89,-1.749 4.729,-6.762 8.095,-14.672 11.214,-22.25 4.379,-10.639 8.422,-21.681 12.986,-32.403 2.426,-5.15 7.191,-9.234 11.583,-14.664 4.061,5.151 7.457,9.096 10.456,13.311 8.828,12.388 17.681,24.806 26.231,37.332 5.911,8.659 12.012,10.876 20.101,6.229 8.013,-4.602 11.144,-13.822 5.72,-21.561 C 99.167,-8.616 86.507,-24.884 74.703,-41.457 63.554,-57.111 52.779,-73.211 42.786,-89.782 c -4.5,-8.039 -6.678,-18.022 -9.015,-26.668 -2.466,-9.125 -11.777,-14.661 -20.958,-11.969 -6.621,1.941 -9.996,7.434 -8.599,14.918 3.117,16.698 9.542,31.696 17.748,47.134 2.94,5.136 6.105,10.144 9.461,15.683 C 14.217,-38.865 6.92,-18.745 0,0" /></g></g></g></g></svg>